<?xml version="1.0" encoding="utf-8"?>
<!-- Generator: Adobe Illustrator 22.1.0, SVG Export Plug-In . SVG Version: 6.00 Build 0)  -->
<svg version="1.1" id="圖層_1" xmlns="http://www.w3.org/2000/svg" xmlns:xlink="http://www.w3.org/1999/xlink" x="0px" y="0px"
	 viewBox="0 0 862 966" style="enable-background:new 0 0 862 966;" xml:space="preserve">
<style type="text/css">
	.st0{display:none;}
	.st1{display:inline;}
	.st2{fill:none;stroke:#000000;stroke-miterlimit:10;}
	.st3{font-family:'AdobeMingStd-Light-B5pc-H';}
	.st4{font-size:35.9513px;}
	.st5{fill:none;stroke:#808080;stroke-width:2;stroke-linecap:round;stroke-miterlimit:10;}
	.st6{fill:none;stroke:#DFDFDF;stroke-width:2;stroke-linecap:round;stroke-miterlimit:10;}
	.st7{fill:none;stroke:#000000;stroke-width:2;stroke-linecap:round;stroke-miterlimit:10;}
	.st8{fill:#808080;stroke:#000000;stroke-width:0.5;stroke-miterlimit:10;}
	.st9{fill:#DFDFDF;stroke:#000000;stroke-width:0.5;stroke-miterlimit:10;}
	.st10{stroke:#000000;stroke-width:0.5;stroke-miterlimit:10;}
	.st11{display:none;fill:#2A2A2A;}
	.st12{fill:none;stroke:#828282;stroke-miterlimit:10;}
	.st13{fill:none;stroke:#828282;stroke-miterlimit:10;stroke-dasharray:3.0037,2.0025;}
	.st14{fill:none;stroke:#9F9F9F;stroke-width:0.6817;stroke-miterlimit:10;}
	.st15{fill:#9F9F9F;}
	.st16{font-family:'ArialMT';}
	.st17{font-size:22px;}
	.st18{font-family:'MicrosoftJhengHeiRegular';}
	.st19{fill:none;stroke:#9F9F9F;stroke-width:0.9453;stroke-miterlimit:10;}
	.st20{fill:none;stroke:#9F9F9F;stroke-width:0.6631;stroke-miterlimit:10;}
	.st21{fill:none;stroke:#FFCB47;stroke-width:1.8906;stroke-linecap:round;stroke-miterlimit:10;}
	.st22{fill:none;stroke:#8AA1B1;stroke-width:1.8906;stroke-linecap:round;stroke-miterlimit:10;}
	.st23{fill:none;stroke:#68C3D4;stroke-width:1.8906;stroke-linecap:round;stroke-miterlimit:10;}
	.st24{fill:#FFCB47;}
	.st25{fill:#8AA1B1;}
	.st26{fill:#68C3D4;}
	.st27{fill:none;stroke:#FFCB47;stroke-width:3;stroke-miterlimit:10;}
	.st28{fill:none;stroke:#68C3D4;stroke-width:3;stroke-miterlimit:10;}
	.st29{fill:none;stroke:#8AA1B1;stroke-width:3;stroke-miterlimit:10;}
</style>
<g class="st0">
	<g class="st1">
		<line class="st2" x1="77.3" y1="879.6" x2="844.2" y2="879.6"/>
		<g>
			<g>
				<line class="st2" x1="77.3" y1="879.6" x2="77.3" y2="858.1"/>
				<line class="st2" x1="122.4" y1="879.6" x2="122.4" y2="858.1"/>
				<line class="st2" x1="167.5" y1="879.6" x2="167.5" y2="858.1"/>
				<line class="st2" x1="212.6" y1="879.6" x2="212.6" y2="858.1"/>
				<line class="st2" x1="257.7" y1="879.6" x2="257.7" y2="858.1"/>
				<line class="st2" x1="302.8" y1="879.6" x2="302.8" y2="858.1"/>
				<line class="st2" x1="347.9" y1="879.6" x2="347.9" y2="858.1"/>
				<line class="st2" x1="393.1" y1="879.6" x2="393.1" y2="858.1"/>
				<line class="st2" x1="438.2" y1="879.6" x2="438.2" y2="858.1"/>
				<line class="st2" x1="483.3" y1="879.6" x2="483.3" y2="858.1"/>
				<line class="st2" x1="528.4" y1="879.6" x2="528.4" y2="858.1"/>
				<line class="st2" x1="573.5" y1="879.6" x2="573.5" y2="858.1"/>
				<line class="st2" x1="618.6" y1="879.6" x2="618.6" y2="858.1"/>
				<line class="st2" x1="663.8" y1="879.6" x2="663.8" y2="858.1"/>
				<line class="st2" x1="708.9" y1="879.6" x2="708.9" y2="858.1"/>
				<line class="st2" x1="754" y1="879.6" x2="754" y2="858.1"/>
				<line class="st2" x1="799.1" y1="879.6" x2="799.1" y2="858.1"/>
				<line class="st2" x1="844.2" y1="879.6" x2="844.2" y2="858.1"/>
			</g>
			<g>
			</g>
		</g>
	</g>
	<g class="st1">
		<g>
			<text transform="matrix(1 0 0 1 20.0405 893.0463)" class="st3 st4">1.5</text>
			<text transform="matrix(1 0 0 1 20.0405 678.4321)" class="st3 st4">2.0</text>
			<text transform="matrix(1 0 0 1 20.0405 463.8173)" class="st3 st4">2.5</text>
			<text transform="matrix(1 0 0 1 20.0405 249.2031)" class="st3 st4">3.0</text>
			<text transform="matrix(1 0 0 1 20.0405 34.5888)" class="st3 st4">3.5</text>
		</g>
		<line class="st2" x1="77.3" y1="879.6" x2="77.3" y2="21.1"/>
		<g>
			<g>
				<line class="st2" x1="77.3" y1="879.6" x2="96.4" y2="879.6"/>
				<line class="st2" x1="77.3" y1="664.9" x2="96.4" y2="664.9"/>
				<line class="st2" x1="77.3" y1="450.3" x2="96.4" y2="450.3"/>
				<line class="st2" x1="77.3" y1="235.7" x2="96.4" y2="235.7"/>
				<line class="st2" x1="77.3" y1="21.1" x2="96.4" y2="21.1"/>
			</g>
			<g>
			</g>
		</g>
	</g>
	<g class="st1">
		<g>
			<g>
				<line class="st5" x1="144.9" y1="635.7" x2="99.8" y2="624.4"/>
				<line class="st5" x1="190" y1="642.6" x2="144.9" y2="635.7"/>
				<line class="st5" x1="235.2" y1="642.1" x2="190" y2="642.6"/>
				<line class="st5" x1="280.3" y1="620.1" x2="235.2" y2="642.1"/>
				<line class="st5" x1="325.4" y1="601.3" x2="280.3" y2="620.1"/>
				<line class="st5" x1="370.5" y1="535.8" x2="325.4" y2="601.3"/>
				<line class="st5" x1="415.6" y1="404.4" x2="370.5" y2="535.8"/>
				<line class="st5" x1="460.7" y1="403.2" x2="415.6" y2="404.4"/>
				<line class="st5" x1="505.8" y1="407.4" x2="460.7" y2="403.2"/>
				<line class="st5" x1="551" y1="355" x2="505.8" y2="407.4"/>
				<line class="st5" x1="596.1" y1="281" x2="551" y2="355"/>
				<line class="st5" x1="641.2" y1="205.5" x2="596.1" y2="281"/>
				<line class="st5" x1="686.3" y1="264.4" x2="641.2" y2="205.5"/>
				<line class="st5" x1="731.4" y1="400.6" x2="686.3" y2="264.4"/>
				<line class="st5" x1="776.5" y1="430.8" x2="731.4" y2="400.6"/>
				<line class="st5" x1="821.7" y1="407.1" x2="776.5" y2="430.8"/>
			</g>
		</g>
		<g>
			<g>
				<line class="st6" x1="144.9" y1="738.5" x2="99.8" y2="729.7"/>
				<line class="st6" x1="190" y1="741.1" x2="144.9" y2="738.5"/>
				<line class="st6" x1="235.2" y1="742" x2="190" y2="741.1"/>
				<line class="st6" x1="280.3" y1="718.5" x2="235.2" y2="742"/>
				<line class="st6" x1="325.4" y1="695.9" x2="280.3" y2="718.5"/>
				<line class="st6" x1="370.5" y1="613.5" x2="325.4" y2="695.9"/>
				<line class="st6" x1="415.6" y1="466.4" x2="370.5" y2="613.5"/>
				<line class="st6" x1="460.7" y1="468.2" x2="415.6" y2="466.4"/>
				<line class="st6" x1="505.8" y1="471.8" x2="460.7" y2="468.2"/>
				<line class="st6" x1="551" y1="399.8" x2="505.8" y2="471.8"/>
				<line class="st6" x1="596.1" y1="320.7" x2="551" y2="399.8"/>
				<line class="st6" x1="641.2" y1="146.5" x2="596.1" y2="320.7"/>
				<line class="st6" x1="686.3" y1="294.8" x2="641.2" y2="146.5"/>
				<line class="st6" x1="731.4" y1="433" x2="686.3" y2="294.8"/>
				<line class="st6" x1="776.5" y1="459.7" x2="731.4" y2="433"/>
				<line class="st6" x1="821.7" y1="433.9" x2="776.5" y2="459.7"/>
			</g>
		</g>
		<g>
			<g>
				<line class="st7" x1="144.9" y1="431.3" x2="99.8" y2="416"/>
				<line class="st7" x1="190" y1="436.6" x2="144.9" y2="431.3"/>
				<line class="st7" x1="235.2" y1="438.2" x2="190" y2="436.6"/>
				<line class="st7" x1="280.3" y1="410.3" x2="235.2" y2="438.2"/>
				<line class="st7" x1="325.4" y1="395.1" x2="280.3" y2="410.3"/>
				<line class="st7" x1="370.5" y1="364.1" x2="325.4" y2="395.1"/>
				<line class="st7" x1="415.6" y1="274.4" x2="370.5" y2="364.1"/>
				<line class="st7" x1="460.7" y1="255.8" x2="415.6" y2="274.4"/>
				<line class="st7" x1="505.8" y1="260.3" x2="460.7" y2="255.8"/>
				<line class="st7" x1="551" y1="249.8" x2="505.8" y2="260.3"/>
				<line class="st7" x1="596.1" y1="185.7" x2="551" y2="249.8"/>
				<line class="st7" x1="641.2" y1="162.3" x2="596.1" y2="185.7"/>
				<line class="st7" x1="686.3" y1="192.3" x2="641.2" y2="162.3"/>
				<line class="st7" x1="731.4" y1="325.3" x2="686.3" y2="192.3"/>
				<line class="st7" x1="776.5" y1="362" x2="731.4" y2="325.3"/>
				<line class="st7" x1="821.7" y1="341.3" x2="776.5" y2="362"/>
			</g>
		</g>
	</g>
	<g class="st1">
		<g>
			<g>
				<rect x="96.8" y="621.4" class="st8" width="6" height="6"/>
				<rect x="141.9" y="632.7" class="st8" width="6" height="6"/>
				<rect x="187" y="639.6" class="st8" width="6" height="6"/>
				<rect x="232.2" y="639.1" class="st8" width="6" height="6"/>
				<rect x="277.3" y="617.1" class="st8" width="6" height="6"/>
				<rect x="322.4" y="598.3" class="st8" width="6" height="6"/>
				<rect x="367.5" y="532.8" class="st8" width="6" height="6"/>
				<rect x="412.6" y="401.4" class="st8" width="6" height="6"/>
				<rect x="457.7" y="400.2" class="st8" width="6" height="6"/>
				<rect x="502.8" y="404.4" class="st8" width="6" height="6"/>
				<rect x="548" y="352" class="st8" width="6" height="6"/>
				<rect x="593.1" y="278" class="st8" width="6" height="6"/>
				<rect x="638.2" y="202.5" class="st8" width="6" height="6"/>
				<rect x="683.3" y="261.4" class="st8" width="6" height="6"/>
				<rect x="728.4" y="397.6" class="st8" width="6" height="6"/>
				<rect x="773.5" y="427.8" class="st8" width="6" height="6"/>
				<rect x="818.7" y="404.1" class="st8" width="6" height="6"/>
			</g>
		</g>
		<g>
			<g>
				<rect x="96.8" y="726.7" class="st9" width="6" height="6"/>
				<rect x="141.9" y="735.5" class="st9" width="6" height="6"/>
				<rect x="187" y="738.1" class="st9" width="6" height="6"/>
				<rect x="232.2" y="739" class="st9" width="6" height="6"/>
				<rect x="277.3" y="715.5" class="st9" width="6" height="6"/>
				<rect x="322.4" y="692.9" class="st9" width="6" height="6"/>
				<rect x="367.5" y="610.5" class="st9" width="6" height="6"/>
				<rect x="412.6" y="463.4" class="st9" width="6" height="6"/>
				<rect x="457.7" y="465.2" class="st9" width="6" height="6"/>
				<rect x="502.8" y="468.8" class="st9" width="6" height="6"/>
				<rect x="548" y="396.8" class="st9" width="6" height="6"/>
				<rect x="593.1" y="317.7" class="st9" width="6" height="6"/>
				<rect x="638.2" y="143.5" class="st9" width="6" height="6"/>
				<rect x="683.3" y="291.8" class="st9" width="6" height="6"/>
				<rect x="728.4" y="430" class="st9" width="6" height="6"/>
				<rect x="773.5" y="456.7" class="st9" width="6" height="6"/>
				<rect x="818.7" y="430.9" class="st9" width="6" height="6"/>
			</g>
		</g>
		<g>
			<g>
				<rect x="96.8" y="413" class="st10" width="6" height="6"/>
				<rect x="141.9" y="428.3" class="st10" width="6" height="6"/>
				<rect x="187" y="433.6" class="st10" width="6" height="6"/>
				<rect x="232.2" y="435.2" class="st10" width="6" height="6"/>
				<rect x="277.3" y="407.3" class="st10" width="6" height="6"/>
				<rect x="322.4" y="392.1" class="st10" width="6" height="6"/>
				<rect x="367.5" y="361.1" class="st10" width="6" height="6"/>
				<rect x="412.6" y="271.4" class="st10" width="6" height="6"/>
				<rect x="457.7" y="252.8" class="st10" width="6" height="6"/>
				<rect x="502.8" y="257.3" class="st10" width="6" height="6"/>
				<rect x="548" y="246.8" class="st10" width="6" height="6"/>
				<rect x="593.1" y="182.7" class="st10" width="6" height="6"/>
				<rect x="638.2" y="159.3" class="st10" width="6" height="6"/>
				<rect x="683.3" y="189.3" class="st10" width="6" height="6"/>
				<rect x="728.4" y="322.3" class="st10" width="6" height="6"/>
				<rect x="773.5" y="359" class="st10" width="6" height="6"/>
				<rect x="818.7" y="338.3" class="st10" width="6" height="6"/>
			</g>
		</g>
	</g>
</g>
<rect x="0.1" y="0" class="st11" width="862" height="966"/>
<g>
	<g>
		<line class="st12" x1="644.6" y1="13.5" x2="644.6" y2="15"/>
		<line class="st13" x1="644.6" y1="17" x2="644.6" y2="822"/>
		<line class="st12" x1="644.6" y1="823" x2="644.6" y2="824.5"/>
	</g>
</g>
<g>
	<line class="st14" x1="111.2" y1="824.5" x2="836.2" y2="824.5"/>
	<g>
		<g>
			<line class="st14" x1="111.2" y1="824.5" x2="111.2" y2="814"/>
			<line class="st14" x1="153.8" y1="824.5" x2="153.8" y2="814"/>
			<line class="st14" x1="196.5" y1="824.5" x2="196.5" y2="814"/>
			<line class="st14" x1="239.1" y1="824.5" x2="239.1" y2="814"/>
			<line class="st14" x1="281.8" y1="824.5" x2="281.8" y2="814"/>
			<line class="st14" x1="324.4" y1="824.5" x2="324.4" y2="814"/>
			<line class="st14" x1="367.1" y1="824.5" x2="367.1" y2="814"/>
			<line class="st14" x1="409.7" y1="824.5" x2="409.7" y2="814"/>
			<line class="st14" x1="452.4" y1="824.5" x2="452.4" y2="814"/>
			<line class="st14" x1="495" y1="824.5" x2="495" y2="814"/>
			<line class="st14" x1="537.7" y1="824.5" x2="537.7" y2="814"/>
			<line class="st14" x1="580.3" y1="824.5" x2="580.3" y2="814"/>
			<line class="st14" x1="623" y1="824.5" x2="623" y2="814"/>
			<line class="st14" x1="665.6" y1="824.5" x2="665.6" y2="814"/>
			<line class="st14" x1="708.3" y1="824.5" x2="708.3" y2="814"/>
			<line class="st14" x1="750.9" y1="824.5" x2="750.9" y2="814"/>
			<line class="st14" x1="793.6" y1="824.5" x2="793.6" y2="814"/>
			<line class="st14" x1="836.2" y1="824.5" x2="836.2" y2="814"/>
		</g>
	</g>
</g>
<g>
	<text transform="matrix(1 0 0 1 69.2754 837.2836)" class="st15 st16 st17">1.5</text>
	<text transform="matrix(1 0 0 1 69.2754 634.4047)" class="st15 st16 st17">2.0</text>
	<text transform="matrix(1 0 0 1 69.2754 431.5253)" class="st15 st16 st17">2.5</text>
	<text transform="matrix(1 0 0 1 69.2754 228.646)" class="st15 st16 st17">3.0</text>
	<text transform="matrix(1 0 0 1 69.2754 25.7666)" class="st15 st16 st17">3.5</text>
</g>
<text transform="matrix(1 0 0 1 122.3877 854.7665)" class="st15 st16 st17">91</text>
<text transform="matrix(1 0 0 1 26.8584 25.7666)" class="st15 st18 st17">元</text>
<text transform="matrix(1 0 0 1 662.8584 856.7665)" class="st15 st18 st17">年</text>
<text transform="matrix(1 0 0 1 147.8584 856.7665)" class="st15 st18 st17">年</text>
<text transform="matrix(1 0 0 1 624.1523 854.7665)" class="st15 st16 st17">100</text>
<line class="st19" x1="111.2" y1="824.5" x2="111.2" y2="13"/>
<g>
	<g>
		<line class="st20" x1="111.2" y1="824.5" x2="120.1" y2="824.5"/>
		<line class="st20" x1="111.2" y1="621.7" x2="120.1" y2="621.7"/>
		<line class="st20" x1="111.2" y1="418.8" x2="120.1" y2="418.8"/>
		<line class="st20" x1="111.2" y1="215.9" x2="120.1" y2="215.9"/>
		<line class="st20" x1="111.2" y1="13" x2="120.1" y2="13"/>
	</g>
</g>
<g>
	<g>
		<line class="st21" x1="175.2" y1="594" x2="132.5" y2="583.3"/>
		<line class="st21" x1="217.8" y1="600.6" x2="175.2" y2="594"/>
		<line class="st21" x1="260.5" y1="600" x2="217.8" y2="600.6"/>
		<line class="st21" x1="303.1" y1="579.2" x2="260.5" y2="600"/>
		<line class="st21" x1="345.8" y1="561.4" x2="303.1" y2="579.2"/>
		<line class="st21" x1="388.4" y1="499.5" x2="345.8" y2="561.4"/>
		<line class="st21" x1="431.1" y1="375.4" x2="388.4" y2="499.5"/>
		<line class="st21" x1="473.7" y1="374.2" x2="431.1" y2="375.4"/>
		<line class="st21" x1="516.3" y1="378.2" x2="473.7" y2="374.2"/>
		<line class="st21" x1="559" y1="328.6" x2="516.3" y2="378.2"/>
		<line class="st21" x1="601.6" y1="258.7" x2="559" y2="328.6"/>
		<line class="st21" x1="644.3" y1="187.3" x2="601.6" y2="258.7"/>
		<line class="st21" x1="686.9" y1="243" x2="644.3" y2="187.3"/>
		<line class="st21" x1="729.6" y1="371.8" x2="686.9" y2="243"/>
		<line class="st21" x1="772.2" y1="400.4" x2="729.6" y2="371.8"/>
		<line class="st21" x1="814.9" y1="377.9" x2="772.2" y2="400.4"/>
	</g>
</g>
<g>
	<g>
		<line class="st22" x1="175.2" y1="691.2" x2="132.5" y2="682.9"/>
		<line class="st22" x1="217.8" y1="693.7" x2="175.2" y2="691.2"/>
		<line class="st22" x1="260.5" y1="694.5" x2="217.8" y2="693.7"/>
		<line class="st22" x1="303.1" y1="672.3" x2="260.5" y2="694.5"/>
		<line class="st22" x1="345.8" y1="650.9" x2="303.1" y2="672.3"/>
		<line class="st22" x1="388.4" y1="573.1" x2="345.8" y2="650.9"/>
		<line class="st22" x1="431.1" y1="434" x2="388.4" y2="573.1"/>
		<line class="st22" x1="473.7" y1="435.7" x2="431.1" y2="434"/>
		<line class="st22" x1="516.3" y1="439.1" x2="473.7" y2="435.7"/>
		<line class="st22" x1="559" y1="371" x2="516.3" y2="439.1"/>
		<line class="st22" x1="601.6" y1="296.2" x2="559" y2="371"/>
		<line class="st22" x1="644.3" y1="131.5" x2="601.6" y2="296.2"/>
		<line class="st22" x1="686.9" y1="271.8" x2="644.3" y2="131.5"/>
		<line class="st22" x1="729.6" y1="402.3" x2="686.9" y2="271.8"/>
		<line class="st22" x1="772.2" y1="427.6" x2="729.6" y2="402.3"/>
		<line class="st22" x1="814.9" y1="403.2" x2="772.2" y2="427.6"/>
	</g>
</g>
<g>
	<g>
		<line class="st23" x1="175.2" y1="400.8" x2="132.5" y2="386.3"/>
		<line class="st23" x1="217.8" y1="405.8" x2="175.2" y2="400.8"/>
		<line class="st23" x1="260.5" y1="407.3" x2="217.8" y2="405.8"/>
		<line class="st23" x1="303.1" y1="380.9" x2="260.5" y2="407.3"/>
		<line class="st23" x1="345.8" y1="366.6" x2="303.1" y2="380.9"/>
		<line class="st23" x1="388.4" y1="337.3" x2="345.8" y2="366.6"/>
		<line class="st23" x1="431.1" y1="252.4" x2="388.4" y2="337.3"/>
		<line class="st23" x1="473.7" y1="234.9" x2="431.1" y2="252.4"/>
		<line class="st23" x1="516.3" y1="239.1" x2="473.7" y2="234.9"/>
		<line class="st23" x1="559" y1="229.2" x2="516.3" y2="239.1"/>
		<line class="st23" x1="601.6" y1="168.6" x2="559" y2="229.2"/>
		<line class="st23" x1="644.3" y1="146.5" x2="601.6" y2="168.6"/>
		<line class="st23" x1="686.9" y1="174.8" x2="644.3" y2="146.5"/>
		<line class="st23" x1="729.6" y1="300.5" x2="686.9" y2="174.8"/>
		<line class="st23" x1="772.2" y1="335.3" x2="729.6" y2="300.5"/>
		<line class="st23" x1="814.9" y1="315.7" x2="772.2" y2="335.3"/>
	</g>
</g>
<g>
	<g>
		<g>
			<rect x="129.7" y="580.5" class="st24" width="5.7" height="5.7"/>
			<rect x="172.3" y="591.2" class="st24" width="5.7" height="5.7"/>
			<rect x="215" y="597.7" class="st24" width="5.7" height="5.7"/>
			<rect x="257.6" y="597.2" class="st24" width="5.7" height="5.7"/>
			<rect x="300.3" y="576.4" class="st24" width="5.7" height="5.7"/>
			<rect x="342.9" y="558.6" class="st24" width="5.7" height="5.7"/>
			<rect x="385.6" y="496.7" class="st24" width="5.7" height="5.7"/>
			<rect x="428.2" y="372.5" class="st24" width="5.7" height="5.7"/>
			<rect x="470.9" y="371.4" class="st24" width="5.7" height="5.7"/>
			<rect x="513.5" y="375.3" class="st24" width="5.7" height="5.7"/>
			<rect x="556.2" y="325.8" class="st24" width="5.7" height="5.7"/>
			<rect x="598.8" y="255.9" class="st24" width="5.7" height="5.7"/>
			<rect x="641.5" y="184.5" class="st24" width="5.7" height="5.7"/>
			<rect x="684.1" y="240.2" class="st24" width="5.7" height="5.7"/>
			<rect x="726.8" y="368.9" class="st24" width="5.7" height="5.7"/>
			<rect x="769.4" y="397.5" class="st24" width="5.7" height="5.7"/>
			<rect x="812.1" y="375" class="st24" width="5.7" height="5.7"/>
		</g>
	</g>
	<g>
		<g>
			<rect x="129.7" y="680.1" class="st25" width="5.7" height="5.7"/>
			<rect x="172.3" y="688.3" class="st25" width="5.7" height="5.7"/>
			<rect x="215" y="690.8" class="st25" width="5.7" height="5.7"/>
			<rect x="257.6" y="691.7" class="st25" width="5.7" height="5.7"/>
			<rect x="300.3" y="669.4" class="st25" width="5.7" height="5.7"/>
			<rect x="342.9" y="648" class="st25" width="5.7" height="5.7"/>
			<rect x="385.6" y="570.2" class="st25" width="5.7" height="5.7"/>
			<rect x="428.2" y="431.2" class="st25" width="5.7" height="5.7"/>
			<rect x="470.9" y="432.9" class="st25" width="5.7" height="5.7"/>
			<rect x="513.5" y="436.2" class="st25" width="5.7" height="5.7"/>
			<rect x="556.2" y="368.1" class="st25" width="5.7" height="5.7"/>
			<rect x="598.8" y="293.4" class="st25" width="5.7" height="5.7"/>
			<rect x="641.5" y="128.7" class="st25" width="5.7" height="5.7"/>
			<rect x="684.1" y="268.9" class="st25" width="5.7" height="5.7"/>
			<rect x="726.8" y="399.5" class="st25" width="5.7" height="5.7"/>
			<rect x="769.4" y="424.8" class="st25" width="5.7" height="5.7"/>
			<rect x="812.1" y="400.4" class="st25" width="5.7" height="5.7"/>
		</g>
	</g>
	<g>
		<g>
			<rect x="129.7" y="383.4" class="st26" width="5.7" height="5.7"/>
			<rect x="172.3" y="398" class="st26" width="5.7" height="5.7"/>
			<rect x="215" y="403" class="st26" width="5.7" height="5.7"/>
			<rect x="257.6" y="404.5" class="st26" width="5.7" height="5.7"/>
			<rect x="300.3" y="378.1" class="st26" width="5.7" height="5.7"/>
			<rect x="342.9" y="363.8" class="st26" width="5.7" height="5.7"/>
			<rect x="385.6" y="334.5" class="st26" width="5.7" height="5.7"/>
			<rect x="428.2" y="249.6" class="st26" width="5.7" height="5.7"/>
			<rect x="470.9" y="232.1" class="st26" width="5.7" height="5.7"/>
			<rect x="513.5" y="236.3" class="st26" width="5.7" height="5.7"/>
			<rect x="556.2" y="226.3" class="st26" width="5.7" height="5.7"/>
			<rect x="598.8" y="165.8" class="st26" width="5.7" height="5.7"/>
			<rect x="641.5" y="143.7" class="st26" width="5.7" height="5.7"/>
			<rect x="684.1" y="172" class="st26" width="5.7" height="5.7"/>
			<rect x="726.8" y="297.7" class="st26" width="5.7" height="5.7"/>
			<rect x="769.4" y="332.4" class="st26" width="5.7" height="5.7"/>
			<rect x="812.1" y="312.9" class="st26" width="5.7" height="5.7"/>
		</g>
	</g>
</g>
<g>
	<text transform="matrix(1 0 0 1 471.8584 923.2665)" class="st24 st18 st17">元</text>
	<line class="st27" x1="415.1" y1="915.5" x2="463.1" y2="915.5"/>
	<text transform="matrix(1 0 0 1 325.8584 923.2665)" class="st26 st18 st17">電燈</text>
	<line class="st28" x1="268.1" y1="915.5" x2="316.1" y2="915.5"/>
	<text transform="matrix(1 0 0 1 595.8584 923.2665)" class="st25 st18 st17">電力</text>
	<line class="st29" x1="538.1" y1="915.5" x2="586.1" y2="915.5"/>
</g>
</svg>
