<svg xmlns="http://www.w3.org/2000/svg" width="121.333" height="45.835" viewBox="0 0 121.333 45.835">
  <g id="logo_udnhope_w" transform="translate(-44.135 -20.1)">
    <path id="Path_1066" data-name="Path 1066" d="M51.135,34.684a6.548,6.548,0,0,1,6.59-6.548A6.42,6.42,0,0,1,61.3,29.2l.255-.468L51.858,20.1c-2.466,3.487-11.1,12.118-6.293,18.368A4.8,4.8,0,0,0,47.054,39.7a6.718,6.718,0,0,0,3.954.468,7.568,7.568,0,0,0,2.126-.765,6.505,6.505,0,0,1-2-4.72" transform="translate(0 0)" fill="#fff"/>
    <path id="Path_1067" data-name="Path 1067" d="M69.215,27.887,71.639,30.1l1.743-3.444L70.916,24.4l-1.7,3.444-2.466-2.253-1.7,3.487,2.466,2.253ZM77.591,29.8l-1.616,3.316,2.339,2.126,1.616-3.316Zm-2.126,4-2.253-2.083L71.681,34.9l-2.253-2.041L67.9,36.008l2.211,2.041h0l-1.531,3.146-2.253-2.041L67.9,36.008l-4.379-4.039L61.477,35.71c-2.679,4.932-6.463,7.483-9.779,7.908A7.143,7.143,0,0,1,46,41.833a15.9,15.9,0,0,0,5.145,7.313c7.228,5.527,17.475,4.252,21.472-3.231l3.529-6.931-2.253-2.041Z" transform="translate(-1.072 -2.472)" fill="#fff"/>
    <path id="Path_1068" data-name="Path 1068" d="M136.984,24.692h-1.743v-.808h1.743Zm0-1.488h-1.743v-.765h1.743Zm0-1.488h-1.743V20.95h1.743Zm.3,4.677a1.658,1.658,0,0,0,.468-1.148V20.228h-3.274V24.82s0,.553.51.553h2.041a.553.553,0,0,1-.255.468.893.893,0,0,1-.723.255h-1.658l.213.765h1.446a1.7,1.7,0,0,0,1.233-.468m2.466.425.935-1.531-.638-.425-.935,1.573Zm1.616-1.956-.935,1.573.638.383L142,25.287Zm-2.891,1.956.935-1.531-.638-.425-.935,1.573Zm4.252-2.764h-1.318l.68-1.105Zm-1.318-2.083.68-1.105.638,1.105Zm.085.6-.723,1.233-.723-1.233Zm-1.361-.6h-1.318l.638-1.105Zm-.68.978.68,1.105h-1.318Zm4.124,1.191-.935-1.573h.638a.3.3,0,0,0,.3-.17.34.34,0,0,0,0-.34l-1.063-1.828h-.85l-.893,1.488-.85-1.488h-.893l-1.063,1.828a.468.468,0,0,0,0,.34.34.34,0,0,0,.3.17h.638l-.935,1.573a.468.468,0,0,0,0,.34c.085.128.17.213.3.213h5.017a.34.34,0,0,0,.3-.213c.085-.085.043-.213,0-.34m-.34,2.636.68-.6a3.657,3.657,0,0,1-1.276-1.276L142,25.33a3.7,3.7,0,0,0,1.233,1.446m12.033-4.507h-4.082l1.488-1.191h1.105l1.488,1.191m3.146,1.4.128-.978h-.935c-.553,0-3.4-2.339-3.4-2.339a.383.383,0,0,0-.3-.128h-1.361a.383.383,0,0,0-.3.128s-2.891,2.339-3.4,2.339h-.935l.128.978H149.1a.6.6,0,0,0,.468-.128l.6-.468h6.123l.6.468c.128.128.255.128.468.128Zm-2.466,1.488a.638.638,0,0,1-.213.468,1.063,1.063,0,0,1-.723.213H151.44a1.063,1.063,0,0,1-.723-.213.638.638,0,0,1-.213-.468h0v-.468h5.442v.468Zm.553-1.233h-6.973v1.318a1.318,1.318,0,0,0,.425.978,1.658,1.658,0,0,0,1.318.51h3.912a1.658,1.658,0,0,0,1.318-.51,1.531,1.531,0,0,0,.425-.978V23.927Zm13.053-1.191h-.128V21.205h1.658a1.531,1.531,0,0,1-1.531,1.531m-2.509-.085a1.233,1.233,0,0,1-1.148.765,1.191,1.191,0,0,1-1.148-.765Zm4.039,2.721c-.085-.128-.638-1.233-.935-1.871h2.338v-.765h-1.233a2.211,2.211,0,0,0,.723-1.658v-.6h-3.359v1.488h-2.339v-.638h2v-.68h-2V20.1h-.808v.553h-2v.68h2v.638h-2.934v.68h1.446a1.488,1.488,0,0,0,.34.68h-.85v.68h2.041v.6h-2.041v.68h2.041a.808.808,0,0,1-.213.425,1.19,1.19,0,0,1-.85.3h-1.276l.17.808h1.233a1.786,1.786,0,0,0,1.361-.51,1.53,1.53,0,0,0,.383-1.02h1.956v-.68h-1.956v-.6h1.956v-.68h-.808a2.041,2.041,0,0,0,.34-.68h.808V26.9h.808V23.927l1.021,2.041h0a1.843,1.843,0,0,0,1.573.765h.765l.128-.935H172.1c-.808,0-1.02-.34-1.02-.425m8.759-1.318,1.956-1.063a.468.468,0,0,1,.51,0l1.828,1.063Zm.213-1.743,1.743-1.148a.553.553,0,0,1,.468,0l1.956,1.148Zm4.847,3.274a6.079,6.079,0,0,1-.935-.893h1.446a.34.34,0,0,0,.34-.3c.043-.255,0-.383-.128-.425l-2.083-.978h1.7c.17,0,.3-.085.34-.34s0-.34-.17-.425l-1.828-1.063h2.679v-.68h-8.5v.68h2.806l-1.828,1.063a.425.425,0,0,0-.17.468c.043.255.255.3.425.3h1.361l-1.956.978c-.17.043-.17.3-.128.468a.3.3,0,0,0,.3.255H180.1l-.978.893a2.075,2.075,0,0,1-1.531.3l.128.85a2.253,2.253,0,0,0,1.913-.553,5.825,5.825,0,0,0,1.063-1.063l-.51-.425h1.4V25.84h0a.213.213,0,0,1-.043.213c-.128.128-.638.085-1.063.085l.255.808a2.219,2.219,0,0,0,1.531-.34,1.19,1.19,0,0,0,.255-.85V24.692h1.361l-.51.468a7.906,7.906,0,0,0,1.02,1.02,2.254,2.254,0,0,0,1.913.553l.128-.85a2.075,2.075,0,0,1-1.531-.3m2.338,3.019H133.2v.34h54.041Z" transform="translate(-51.196 0)" fill="#fff"/>
    <path id="Path_1069" data-name="Path 1069" d="M151.356,59.6h0a.043.043,0,0,0,.043-.043c-.043,0-.043.043-.043,0m.085.51c0,.043-.042.17.043.17s0-.085,0-.128h-.043m0,.425Zm0-.255c0,.043-.042.17.043.213s0-.17-.043-.213m0-1.02h0c.043-.043.043-.043,0-.085H151.4c0-.043.042-.085,0-.085a.255.255,0,0,1-.043.17c.043,0,.043.085,0,.085s.043,0,.043-.043.042-.085,0-.085h.042m0,.638c.043,0,.043-.043.043-.085s.043-.043-.043-.043v.128m0-.425c0,.085-.042.085,0,.213h.043c0-.085,0-.213-.043-.213m0,1.233a.043.043,0,0,0,.043-.043c-.043,0-.085.043-.043.043m-.213,1.063c-.043,0-.043-.085-.043-.128s0-.043.043-.085a.17.17,0,0,1,0,.213m0-2.976h.043v.085c-.043-.043-.043-.085-.085,0s.042-.043.042-.085m-.042,3.061h-.043m0-4.039c.043.043,0,.043,0,.085h0c0-.043.043-.043.043-.085m.042.468c.085.043-.042.213.043.255s.043.128,0,.17-.043-.043-.043-.085h-.042c.042-.043.085-.213,0-.213v-.128m0-.085c.042,0,.042.085,0,.085v-.085m.042,2.466v.17c0,.085,0,.213-.042.255a1.445,1.445,0,0,1,.042-.425m0-.3c0,.043.043.17-.042.17s.042-.128.042-.17m-.085-1.4h0m.043,2.509v-.043c.042,0,.042.128,0,.128s.042-.043,0-.043m-.34.213H150.8c0-.043.043-.043.043-.085v.085m-.043-.765h.043c-.043.085-.043.085,0,.213s-.043-.17-.043-.213m-.723-2.168c.043,0,0,.043.043.043s-.043-.043-.043-.043M150,60.834a.128.128,0,0,0-.043-.085c.043,0,.085.043.043.085m0,.255a.17.17,0,0,1-.043-.128c.043,0,.043.085.043.128m-.043.128h-.042v-.085c.042,0,.042.085,0,.085M149.825,61h0m-.34-.68c-.085-.043,0-.17,0-.255s.085.128,0,.17.085,0,.085.043h-.085m.085.383h-.085c.043.085,0,.213.043.255s-.043.085-.043.128,0-.085-.043-.085h0a2.8,2.8,0,0,0,.043-.6c0,.043-.043.17.043.128s-.043.043-.043.085h.085c0,.043-.042.085,0,.128m-.085-1.616v.085c-.043-.043-.043-.043-.043-.085h.043m-.085-.085c-.043-.043.043-.085-.043-.085h-.042c0,.043.085.043.042.085s-.255,0-.3.085h.213c0,.043-.043.043-.043.085a7.015,7.015,0,0,0-.893.085c-.043,0,.043-.043,0-.043l-.3.085a1.912,1.912,0,0,0,.128-.468c.085,0,.128.043.128.085a3.119,3.119,0,0,1-.553-.553c-.17-.213-.213-.213-.34-.213h0a.425.425,0,0,0-.255.383c-.043,0-.085,0-.043.043h0c.17.17.043.553.043.893h-.085a.043.043,0,0,1-.043.043c0-.043,0-.043.043-.043h-.128s0,.085-.043.085-.085.043-.128,0-.128.085-.17.043-.383.128-.468.213v-.085c-.043,0-.043.085-.128.085s0-.085,0-.085h.085c.043,0,.043-.128-.043-.128s0-.085.043-.085-.085-.085-.043-.128h.043c0-.17-.043-.255,0-.383s-.043-.085-.085-.085a.128.128,0,0,0,.043-.085s-.043,0,0-.043-.043.085-.085.043a.17.17,0,0,0,.043.128.3.3,0,0,1,0-.383c-.085,0-.043-.213,0-.17s.085-.213.042-.34,0,.043-.042.085.085-.3,0-.425,0,.043-.043.085-.042-.128.043-.17-.043-.085,0-.128v.043h-.043v-.085h0c-.042,0,.043-.043,0-.043s.043,0,.043-.043l-.085-.085c0-.043.042-.043.085-.043h-.085c.042-.043.042-.085.042-.17s-.042,0-.042.043,0-.085.042-.128-.042-.085,0-.085,0-.17,0-.255a.043.043,0,0,0-.042.043V56.5c0-.085-.043-.17,0-.255a.936.936,0,0,1-.085-.51,13.4,13.4,0,0,1,2.976-.85h.383c.085.043.085.213.085.3s0,.085.043.085a.6.6,0,0,1,0,.383h.085c-.043.085,0,.085-.043.128s.085.383.128.468,0,.085,0,.17-.17.085-.255.043h-.043l-.893.3-.638.085h-1.063c-.043-.128-.17-.085-.255-.128s-.17.043-.255.085-.043.085-.085.128,0,.255.085.383a.678.678,0,0,0,.765.085c.255-.17.213-.085.34-.085h.978l.723-.17h.468v.085h.085c0,.085-.085.043-.085.085s0,0,.043.043,0,.085-.085.085.085,0,.085-.043v.085h0c0,.043,0,.128-.043.128s0,.17.085.213-.043.043-.043.128,0-.085-.043-.043,0-.085.043-.085-.085.043-.085.043a.468.468,0,0,1-.043.34.043.043,0,0,1,.043.043c.042-.043.042-.128.085-.17s-.043.128,0,.213-.043,0,0-.043h-.085a1.063,1.063,0,0,0,.042.34.255.255,0,0,0,0-.255h.043c.085.085-.043.255.043.34s.043,0,.043,0,.128-.255,0-.34.043-.128.043-.128a1.19,1.19,0,0,0,.085.468h-.043c.043.043,0,.128.043.128s0,.128-.043.17,0-.128-.085-.128v.085m-.085.085c.043,0,.043,0,.043.043H149.4v-.085m0,2c0-.043.085-.128.043-.17h0c-.043-.043-.085-.043-.043-.085h-.043c-.042.043.043.128-.042.128s.042.128,0,.128h-.043c-.128.085-.213-.085-.383,0l-.17-.085a.34.34,0,0,1-.383.085s.043,0,0,.043h-.68c.042,0,.042,0,.042-.043h0c.043,0,.043-.085,0-.085h.085a.723.723,0,0,1,.042-.3h-.042c.128-.043,0-.34.128-.51h.255a.085.085,0,0,1,.128-.043c.043,0-.042,0,0-.043l.128.085v-.085h.51c.085.043.213.085.255-.043h.17v.128c.043,0,.043-.085.085-.085s-.043.213.043.255h-.043a.085.085,0,0,1,0-.128H149.4c-.085.128-.043.255-.043.425h.085c-.043.043,0,.17-.043.17a.043.043,0,0,0,.085,0,.34.34,0,0,1-.085.213m-1.828.213c-.042-.043,0-.085,0-.128h.043c0,.043-.043.043-.043.085m0,.085h0m-.085.17c-.042-.043.043-.085.043-.128a.212.212,0,0,1-.043.128m-.042.128v-.128c.042.043-.043.085-.043.128m-.085-.85c.043-.043.043-.085.043-.17s.043.17-.043.17m-.043.3c-.043-.085.085-.17,0-.213s.043-.043.043-.085a1.359,1.359,0,0,1-.043.3m0-.213v.085c-.043,0-.043,0-.043.043s0-.085.043-.128m-.085-1.573c.085,0,0,.085.043.17h-.085c.043-.043.085-.128.043-.17m.043,1.913a.17.17,0,0,1-.043.128v-.085a.042.042,0,0,1-.043.043h.043c0,.043-.043.17-.085.085a.043.043,0,0,0-.043.043c-.043,0,0-.043,0-.043h.043c-.043-.043-.043-.043,0-.085h0v-.085h.043c-.085-.043.043-.128-.043-.128h.085c.043,0,0,.043,0,.043h.043v.085m-1.318-1.913a.383.383,0,0,0-.043-.213.3.3,0,0,1,.043.213m3.529-1.148V57.9c.085,0,.043.085,0,.085m.043-.553c.043,0,0,.128,0,.17h-.043c0-.085,0-.128.043-.17m-3.444,5.145h.043c0,.043-.043,0-.043,0m-.213.255c0-.043.043,0,.043-.043s-.043.043-.043.043m-.085.043h.085c.043.043-.085.085-.085.043m-1.7,1.913H144v.128h-.043c0-.043,0-.085-.085-.085h-.085l.255-.085v.085m-.34-.34c-.043,0-.043-.043-.085,0s.085-.043.043-.085.128,0,.17-.043h0c0,.043-.128,0-.128.085m-.213.043a.085.085,0,0,1,.085-.085c-.043.043.043,0,.043.043h-.128m-.128,0h0m-.3-.17-.085-.085c.085,0,.085.043.085.085m2.551-4.422h.043c0,.043,0,.085-.043.043m-.893.085c0-.043.042-.043.042-.085s0,.085.043.085h-.043m1.913-11.948h-.128c0-.085.085-.043.128-.043m.17-.085c0,.043-.085.085-.128.085l.128-.085m.213,1.02c0,.043,0,.085-.043.085s0-.085.043-.085m.85-.425h.043a.043.043,0,0,1-.043.043c-.043-.043,0-.043,0-.043m.128-.128c.043.043,0,.043.085.043h-.17c0-.043.085-.043.085-.085m.425-.043c0,.043,0,.043-.043.043a.043.043,0,0,1,.043-.043m.51-.128c0,.043-.042.043-.042,0s.042,0,.042,0m2.254,6.08c.043.043-.043.128.043.128s-.085-.043-.085-.085h.042m-.042-.213h.042s-.042.043,0,.043-.042-.043-.042-.085m0,1.871c.042,0,0,.043.042.085s-.085-.085-.042-.085m0,.128v.085c-.043.043-.043-.043-.043-.085m.17,4.082h0c0,.043.043.043,0,.085s-.043-.043,0-.128m2.636,5.272c.043-.17-.128-.425-.085-.6s-.043-.128-.128-.17.043-.043.043-.128-.128-.17-.213-.3h0c-.085-.043-.085-.17-.17-.255h-.085c0-.043.043-.043.043-.085h-.085c-.085-.043-.042-.255-.17-.3s-.043-.085-.085-.128h-.043c-.043-.128-.17-.17-.17-.34s-.085-.043-.085-.128-.17-.17-.34-.255a.043.043,0,0,0,.043-.043.085.085,0,0,1-.085-.085h-.128c-.085.043-.043-.17-.17-.128s-.085-.128-.128-.17h-.043c-.085.085-.255-.043-.255-.128s-.128-.043-.128-.085-.17-.128-.213-.17a.255.255,0,0,1,.043-.17h-.043l.085-.085a.17.17,0,0,1,0-.213.043.043,0,0,0,.043.043c.042-.043,0-.085,0-.128h-.043v-.085a.043.043,0,0,0-.043.043v-.085c.043,0,.043-.043.085,0l-.085-.128c.085.043,0-.085.085-.043s0,.043.042.043,0-.128.043-.213,0,.128-.085.17.042-.128,0-.128-.043.085-.043.043h-.043a.3.3,0,0,1,.043-.213h0c.043-.043,0-.128.043-.085a.043.043,0,0,0-.043-.043c0-.043,0-.085.043-.085h0v-.213c0-.043-.043-.043-.043,0v-.213h0c.043.043,0,.043,0,.085s.043-.128.085-.17h.043c-.043-.043,0-.043,0-.128s-.043.085-.043.085a.042.042,0,0,1-.042.043V59.9c.042,0,0,.085.042.085s.043-.128,0-.17V59.9a.255.255,0,0,1-.042-.17h-.043c.043-.043,0-.085-.042-.043a.723.723,0,0,1-.043.425c0-.128.043-.3.043-.468h.085a.212.212,0,0,1,0-.213,2.763,2.763,0,0,1,0-.6c-.085,0-.085.128-.085.128h-.043c.043-.085.043-.17.128-.17s-.085-.085,0-.085-.085-.128,0-.17a.085.085,0,0,1,0-.128h-.085a.467.467,0,0,0,.042-.213h-.042a.255.255,0,0,0,0-.255c.085-.043,0-.17.085-.255s.042-.043.042,0a.651.651,0,0,0,.043.383,1.147,1.147,0,0,0,0-.383.043.043,0,0,1-.043-.043c0,.043-.042,0-.085,0h0c0-.043.043,0,.043-.043h-.085v-.085c-.085.085.043.213-.085.3s-.085-.213,0-.34a.468.468,0,0,1,.043-.51h0c.085,0,.043-.17.043-.17h.043c-.043-.085,0-.17-.043-.17h-.043c0,.085,0,.128-.043.17s.043-.085,0-.17.085-.085.128-.043,0-.255.043-.17a.255.255,0,0,0-.043-.17v.085c.043,0,.043.043,0,.043a.6.6,0,0,1,.085-.3c.043.128,0,.34.043.425a2.168,2.168,0,0,0-.043-.765v.128H151.4a.17.17,0,0,1,.042.128H151.4l-.128.128h-.128c.043-.043,0-.128.043-.17s.042.043.085.043V55.86h0v-.085c.085-.085,0-.128.085-.17s0-.085-.043-.128h-.043l.085-.128c.043.085,0,.255.085.34s0-.3-.042-.425-.043.085-.085.085h-.043c.043-.043,0-.085,0-.128h.043c-.043-.043-.043,0,0-.043h-.085c.043-.128,0-.213.085-.3s.042.213,0,.3h.085c-.043-.043,0-.043,0-.043a.043.043,0,0,0-.043-.043,3.017,3.017,0,0,0-.085-.893v.085c-.043-.043-.043-.043-.043,0a.043.043,0,0,1-.042-.043c.17,0,.042-.3.042-.425a1.062,1.062,0,0,0-.042-.383v-.128a1.531,1.531,0,0,0-.085-.468.043.043,0,0,1,.043-.043,1.87,1.87,0,0,1-.085-.425c0-.043-.043-.043-.043-.085a1.724,1.724,0,0,1-.128-.425.488.488,0,0,0-.383-.468c-.255-.043.043,0,.043-.043l-.255-.213c0-.128-.213-.085-.213-.213s-.085,0-.128-.043h-.085a.127.127,0,0,1-.043-.085c-.128,0-.128-.128-.213-.17h-.51a.085.085,0,0,0-.085.085h-.17c-.043.043-.085-.043-.17,0s.128.128.085.213-.17.043-.255,0-.128.043-.128.128l-.128.085h-.043c-.043.043,0,.17-.085.213s-.085.128-.17.128-.043.17-.17.213-.128.3-.3.255a.6.6,0,0,0-.6.3h.3c0,.043-.043.043-.043.085h0c.085,0,0-.043.043-.043l.213.085c.043.17.255.043.34.17s.17.128.34.043.255.043.425.085h.043c.043-.043.085,0,.17,0s.085.043.128.128a.6.6,0,0,1,.085.255.17.17,0,0,0,.043.128c0,.043-.043.085-.043.128a1.4,1.4,0,0,0,.128.255h-.043c0,.043.043.085,0,.128s0,.085.043.128a.128.128,0,0,0-.043.085h-.468l-.213.085a2.806,2.806,0,0,1-.638.213,8.675,8.675,0,0,0-1.871.978h-.042c0,.043-.043.085-.128.085v-.128c0-.043-.043-.043-.043-.085s-.17-.17-.128-.34h-.043c0-.128-.128-.128-.085-.255h-.042c-.043-.085,0-.085,0-.128s-.128-.17-.17-.255h0c-.043,0,0,.043-.043.043s-.043-.043-.043-.085h-.085c-.043-.128-.213-.17-.213-.34l.723-.3c-.042.128-.17.213-.213.3h.043l.17-.255c0,.128-.128.17-.17.3h.085c.043-.043-.043-.043,0-.085l.128-.085a.128.128,0,0,1-.043.085c.128-.085.128-.128.213-.213s-.043.128-.043.17a3.864,3.864,0,0,1,.468-.68c.213-.17.043-.128.085-.128s.043-.128.085-.213.043-.043.043-.128.043-.085.085-.128a.042.042,0,0,1-.042-.043c.128-.17.042-.34.17-.468s-.043-.085,0-.085h-.043c0-.17.085-.425-.085-.553s0-.128-.042-.17a.3.3,0,0,0-.128-.255c0-.043-.043-.043-.043-.085s-.043-.043-.085-.043-.17-.128-.255-.213-.128-.043-.128-.085-.128-.085-.17-.043h-.128c-.043-.043-.17-.043-.213-.128h.043c-.128.043-.17,0-.3-.043l.383-.128h0a.468.468,0,0,0,.34-.085h0a4.933,4.933,0,0,1,.935-.255.043.043,0,0,1,.043-.043s.043-.043.043,0,.085,0,.128-.043-.043,0-.043,0a.043.043,0,0,1,.043-.043c.042,0,0,0,0,.043h.085c.085,0,.128-.043.17.043h.085c0-.043.085-.085,0-.17h.085s-.085,0-.043.043.043,0,0,.043.128,0,.128-.043,0-.043-.042-.085.085-.043.085,0,.085-.128.17-.128h.085c-.043,0-.085.043-.043.043s0-.043.043-.043.085-.043.085,0-.043,0-.043.043.085-.085.128-.128-.042.043-.042,0h.085c.043,0,.043.085.085.085a.213.213,0,0,1,.128-.128c0,.043.043-.043.128,0s-.043.043,0,.043,0-.043.043-.085a.043.043,0,0,0,.043.043c0-.085.085-.043.17-.043v-.085h.043l.213-.085h-.043a.468.468,0,0,0,.255-.085h0l.17-.085h0l.34-.085c.042.043,0,.043,0,.085s.255,0,.3-.085,0,.043.043,0,0,.043.043.043a.553.553,0,0,1,.383.085c0-.043.085.043.085,0h0c.17,0,.17.128.34.128h0c.17-.043.255.085.383.128s.128,0,.17.043h.17c0,.043.085,0,.085.043h.128a.128.128,0,0,0,.213.043.383.383,0,0,0,.3.043c-.043,0,0,0,0,.085s.043,0,.085.043h.085c0-.085.043-.085.043-.128h.085c-.043.043-.043.085,0,.085s0-.085.043-.085.17.128.255.043.043-.213.085-.3a.043.043,0,1,1,.085,0c-.043-.043,0-.085.043-.128h-.042c-.043-.043,0-.043.043-.085s-.043-.128,0-.085,0,.085.085.085.085-.255,0-.34h-.043c-.043-.085-.17-.085-.17-.213s-.085-.213-.255-.17-.042-.043-.042-.085a.3.3,0,0,1-.255-.128l-.34-.085c-.043.043-.043,0-.085,0H151.7c-.043-.043-.085,0-.17,0h-.085l-.213-.17H151.1c-.043,0,.043.043,0,.043s-.128-.085-.17,0,.042,0,.042.043,0,.128-.085.085-.213.085-.3.128a2.083,2.083,0,0,0-.723,0,2.338,2.338,0,0,0-.765.085h.043l-.553-.17h0c-.043.043-.213.043-.213,0a.043.043,0,0,0,.043.043c-.043.043-.085.085-.128.043h.085c-.043-.043-.128,0-.17,0a.128.128,0,0,1,.043.085h-.213s0,.085-.043.043h-.043c-.043.085-.043.128-.17.128s.042-.043.042-.085h-.042c-.085,0-.043,0-.043-.043s-.213,0-.255.085a.043.043,0,0,1,.043.043c-.043,0-.085-.043-.085.043h.085s-.085.043-.085,0-.043-.043-.043-.085l-.17.085h-.042c-.128.085-.425.043-.51.17s-.3.085-.468.128.043,0,0,.043-.17-.043-.255.043-.3.085-.468.128H145.4l-.68.213c-.043.043-.128.085-.17.043l-.383.128h-.042c-.17,0-.255.128-.425.085a.043.043,0,0,1-.043.043h-.17a2.594,2.594,0,0,1-.553.128.681.681,0,0,1-.3,0c-.085.085-.17.043-.3.043a.468.468,0,0,1-.34.085c-.085.085-.128.085-.255.085h-.17l-.51.128c-.043.043-.213.043-.3.128h-.383c.255.128.468.34.765.34s.17.043.213.128.128,0,.128.043.213.085.34.128l.553.085h0c.085-.043.128-.043.17,0h.85a2.806,2.806,0,0,0,.638-.128l.383-.17c0,.043.085.043.128.085h0c.085.128.128.34.213.51s.043.128-.043.213.043.213.085.34a.773.773,0,0,1-.128.6h0c-.128.3-.213.68-.3.935s.043.043,0,.043-.085.17-.255.128-.085.043-.128.085-.043.085-.128.085h-.043c0,.043-.043.043-.043.085h-.043c0,.17-.128.383-.043.553s0,.085-.043.085.043.085,0,.17a.3.3,0,0,1,.128.255v.17h.085c-.043.085.043.128,0,.213a.043.043,0,0,1,.043.043c.042.043,0,.043,0,.085a.043.043,0,0,1,.043.043c0,.043,0,.085-.043.085l.085.085a.638.638,0,0,0,.043.255c-.085.213.043.51,0,.765h.043c-.043.128.085.213.043.3l.128.893h.042a7.527,7.527,0,0,0,.043.978v.085h0c-.043,0,0,.085,0,.085h0c.043.043,0,.085.043.085h-.043c0,.043.043.043.043.085a.043.043,0,0,1,.043.043c-.043,0-.043,0-.043-.043s-.043.128.043.128,0,.213.043.255-.043.043-.043.085.043.085,0,.128.085.043.043.085h.085c-.085.043.043.128-.043.213h.085c-.043,0,0,0,0,.043s-.043.085,0,.128,0-.043-.043-.043.085.085.085.17-.042-.043-.042,0,.128.085.085.17,0-.128.085-.085.043-.043.085-.043.042.128-.043.17a.043.043,0,0,1-.043-.043h-.042c0,.043.042-.043.042,0h0l-.34.17c0-.043-.085,0-.085.043l-.553.213c-.085-.043-.255-.043-.255-.17h-.6c0,.043-.043.128-.085.128s-.043.3-.128.383V61c.085.255.34.34.51.51s.085.128.128.128a1.785,1.785,0,0,1,.51.128h.213l.085-.085.553-.17.3-.128a.128.128,0,0,0,.128-.128,1.148,1.148,0,0,0,.468-.425c.213-.128.553-.213.638-.468s.043.043.043,0h.043c.085-.043.085-.17.17-.17s-.042.043,0,.043.085-.128.17-.085h0c.043-.043,0-.043,0-.043s.085-.085.128,0a.043.043,0,0,1,.043-.043h.213l-.128.34c0,.128.042.255-.043.255s.085.043.085,0a1.532,1.532,0,0,1,.085-.425h-.043c.043-.043.128-.17.085-.17a.043.043,0,0,1,.043-.043c0,.043,0,.085-.043.085V60.2c-.043,0,.043.043-.043.085h0c-.043,0,0,.128-.043.17s.043-.043.043,0a.359.359,0,0,1-.085.255c-.085.085.043,0,.043.043l-.085.085c0,.043.042,0,.042.043a.213.213,0,0,0-.128.128c.042-.043.042,0,.042.043a.043.043,0,1,1-.042-.043h-.085a2.551,2.551,0,0,1-.6,1.105c-.128.043-.085.255-.213.213s0,.128-.042.128-.043-.043-.043,0v.043h-.043a.043.043,0,0,0,0,.085c-.085,0-.042.085-.128.043s0,.043-.043.085a3.237,3.237,0,0,1-.51.425h.043l-.17.085h.043a.213.213,0,0,0-.17.085c-.042,0,0,0,0,.043a.8.8,0,0,1-.468.213l-.3.17h0a3.615,3.615,0,0,1-.723.255h0c-.085,0-.17.043-.255,0s-.213-.128-.255-.085l-.17-.17v.085c.043,0,.043,0,.043-.043s.128.128.085.213,0-.128-.043-.128,0,.043.043.085h-.043c-.085,0-.085-.128-.17-.085v-.128H142.6c-.043-.043,0-.17-.128-.17h0c0,.043.042.085.085.128v.085c.043.043.128.043.128.128a.043.043,0,0,1,.043-.043c0,.085.128.085.085.213s.213.043.255.128h.085c-.043.043-.043.085.042.128s-.042-.043,0-.043.043.085.043.043-.043-.043,0-.043.085.128.128.043.128.17.17.128,0,.085.043.085.043-.085.085-.085,0,.043.043.043-.043-.043,0-.043.043,0,.043.043a.681.681,0,0,1,.3,0H144c.043,0,.17-.043.17.043v-.085h.425c-.043.043,0,.043,0,.085s.085-.043.042-.085,0,.043-.042.043-.043-.043,0-.085.085-.085.085,0h0c.043,0,0,0,0-.043h.043c.042-.085.128-.043.17-.043h.043a.128.128,0,0,1,.043-.085h.085c0-.043,0-.085.043-.043h0c.043-.043.043-.085.085-.043s-.043-.043-.043-.085h.213s-.042-.043,0-.043h.043c.085-.043.085-.085.17-.043V63.9h.085c.043,0,.085,0,.043-.085h.043c0-.128.128-.128.213-.128a.042.042,0,0,0-.042-.043.3.3,0,0,0,.213-.17h.043c0-.043,0-.043.043-.085h.043c.043-.043,0-.085.043-.085h.043a.043.043,0,0,1-.043-.043.3.3,0,0,0,.213-.17h-.042a2.678,2.678,0,0,0,.765-.935h0a1.914,1.914,0,0,0,.255-.51h0a3.826,3.826,0,0,0,.17-.808c.042-.043,0-.043,0-.043a.042.042,0,0,1,.042-.043c0,.128.213.255.128.425s.213.043.213.213.255.255.255.043.128-.085.17,0h0c.043.085.043.17.128.213s.128.043.128.17.255.043.213.17.128,0,.17,0,0,.043.043.043.043.17.128.213.043.128.128.085.17.128.17.255l.34.213c0,.043-.043.043,0,.085H150c.042.043,0,.043,0,.085a1.054,1.054,0,0,0,.383.383c.17.085,0,.085.043.085h.043l.085.128h.043a.6.6,0,0,0,.3.34h0c.085.043.043.17.128.213h.085c.043.085.043.17.17.17h.128v.128h.128c.085.043.17,0,.17.128h.043c0,.085-.043.043-.085.085h.085V64.7h.128c0,.085.043.085.043.128a.043.043,0,0,0-.043-.043l.213.255a.042.042,0,0,1,.043-.043c.128.043.17.17.3.17s.043.085.128.128.128,0,.043.085l.17.213h.043l.085.085c0,.043,0,.085.043.085h.043l.128.085h.043l.128.128c.042.043,0,.085.085.128s0-.213.043-.3a4.46,4.46,0,0,1,.468-.3,2.083,2.083,0,0,1,.043-.51c.043,0,.043.043,0,.085h.043m-11.31-4.209c0-.043,0-.085-.043-.085v.085Zm6.675-2.806c0,.043-.043.043,0,.085h.043c0-.043.043-.085-.043-.085m-2.424,2.594c.043,0,0-.085,0-.085h0c0,.085-.085.128,0,.17s0-.085.043-.085m5.357-12.075c.085-.043.085-.128.085-.213s-.17.085-.17.17h.085v.085m-.255-.085c0,.085,0,.17.085.17a.34.34,0,0,0-.085-.17M142.852,61.3a.34.34,0,0,0-.085-.17h0c-.043-.043,0-.085-.043-.085h-.043c.043.085.085.085.085.085a.611.611,0,0,0,.085.128h0m-.213,2.211c0,.043.043.128.085.128a.043.043,0,0,0-.043.043c.043-.043.043,0,.085,0s-.043-.128-.085-.085V63.47m8.759-5.187c0,.043-.042.043-.042.085s.085-.085.042-.085m0-1.531v.085c.043,0,.043-.085,0-.085m.085,2.041h-.043c0,.043,0,.043.043.043h0m-2.551-.255h0m2.466-1.02c0,.043,0,.085.043.085s.043-.085-.043-.085m0-1.191h0V56.5c.043,0,.043-.128,0-.128m.043.765c0-.085.043-.213-.043-.255s0,.085.043.085-.043.128-.043.17h.043m-.043-1.02c-.042.043.043.128,0,.255s0-.17.043-.255h-.043m.085,2.339c-.043-.043,0-.085-.043-.085s-.043.128.043.085m-.085-.128v-.085h0M151.4,57.6c.042.043.042-.043,0-.043h0m.085.255c.043-.085.043-.213-.043-.255s0,.17.043.255m0,.3V58.2s.043-.085,0-.085m0-.3c-.043.043-.043.085,0,.085s.043-.043,0-.085m.043.553h-.043V58.5c.043,0,.043-.085.043-.128m-.043-.425v.17c.043,0,0-.085.043-.128h-.043m-.085-.553h0c.042-.043,0-.128.042-.128s-.042.085-.042.085m-9.779-5.527c0-.043.043-.128-.042-.17s0,.128.042.17m-5.4.085c.043.043.085-.043.043-.085s-.043.043-.043.085m-1.573-.383h0a.043.043,0,0,1,.042.043h-.042m1.573.425c0,.043-.085.043-.043.085s.043-.043.043-.085m15.137,3.231h-.043v.085h.043m-15.222-3.1c.043.043.043,0,.043-.043a.043.043,0,0,0-.043.043m-6,5.868a.085.085,0,0,1-.085.085v.085c0-.043.085-.128.042-.17m11.352-6.675a1.4,1.4,0,0,1,.128.255c.042-.085-.085-.255-.128-.255m-12.033,7.526.128-.17-.128.17m-.638.68h0m-.128.128h0c-.043-.043-.043.043-.043.043h.043m1.361-1.446h0l-.085.128c.043,0,.043-.085.085-.085m-3.1,3.4h0m2.764-3.019h0m11.778-7.143a.043.043,0,0,0,.042.043h0s0-.043-.042,0M129.076,59.3c0,.043-.128.085-.085.128s.085-.085.085-.128m-.128.128c-.043.043-.085.043-.043.085v-.085m18.326,1.786c-.043,0,0,.043,0,.043h0m-1.318-2.721c.042,0,.042-.043,0-.085a.043.043,0,0,0,0,.085m0-2.679c0-.043.042-.085-.043-.085s0,.085.043.085m2.253,4.379s.085.043.085,0h-.085m.3.043s.043-.043,0-.043h-.043c.043,0,0,.043.043.043m.255-1.105h-.043c0,.043.085,0,.043,0m-2.509.68h0m2.253-.6h.043c0-.043-.085,0-.043.043m-2.253-.085v.043c0-.043.043-.085,0-.085m2.636,0h0m-6,5.655h.085l-.085-.085m.085.085c0-.128,0,0,.043.043s.043,0,.043,0a.149.149,0,0,0-.085-.043m-.553-.808v.085c0-.043,0-.085-.043-.085m9.312,1.361h0m-8.121-.34c.043,0,.043,0,.043.043h-.043c0,.085.085.043.128.043h0c-.043,0-.043-.128-.128-.085m-1.956-3.7c.085-.085,0-.255.042-.34s-.128-.17-.128-.3-.17-.128-.255-.128-.255-.128-.255-.213h-.17c-.128,0-.128-.085-.17-.085H140.6c-.085-.085-.255-.085-.3-.213h-.085a.34.34,0,0,0-.34-.085.043.043,0,0,0-.043-.043c0,.043-.042.043-.042.085s-.043.085,0,.128h-.085c-.043.128-.085.085-.213.128s.043-.043.043-.085l-.17.128a.468.468,0,0,1-.085.213c-.042,0,0,.043,0,.043a.042.042,0,0,1-.042-.043v.128c.17-.085.383.085.425.255a.755.755,0,0,0,.17.425c.128.128.085.17.128.255v.128a.128.128,0,0,0,.043.085c0,.085,0,.128.043.17h.17c.043.043.043.128,0,.128h0c.085.085.213,0,.3-.085a.127.127,0,0,0,.042.085c.085,0,.085.085.17.128s.085-.085.17-.128h.213c.043-.043.085-.085.17-.043s.17-.17.3-.213.043-.255.043-.383h-.043c.043-.043.043-.085,0-.17m2.594,3.742h0c0-.043-.042,0,0,0m-.383,0c0,.043-.043.043,0,.085h.043c-.043-.043,0,0,0-.043h-.043m22.7,1.191v.085c-.043-.043,0-.085-.043-.085m-.765-14.8c.043.043.043.043,0,.085s.085-.043.085-.085-.043.043-.043,0,.043,0-.043,0m1.276,13.1a.043.043,0,0,0,.043-.043h-.043v.085m1.233-15.009c-.085,0-.17-.043-.255,0s.17.043.255,0m1.4,4.975h0m-.383-.043h.085c0-.085-.085-.043-.085-.043m-.935-4.932h-.085c-.043.043.085.043.085,0m.043,3.869c-.043,0,.043,0,0-.043h0m-1.743,1.616.085-.085s-.043.085-.085.085m-.255-3.529h-.128l-.383.085H165.6a.043.043,0,0,1-.043.043h.128c-.042-.043-.042,0-.042,0s.128-.128.17-.128h0a.043.043,0,0,1,.043-.043h-.043c.043,0,.085-.043.128,0s-.043-.043,0-.043a.383.383,0,0,1,.255-.128h.043l.128-.085h0c0,.043.043-.043.043,0s-.043-.043,0-.043.17-.128.255-.085,0-.043.043-.085a1,1,0,0,1,.51-.17c.213,0,.128-.043.213.043s.043,0,.128-.043a.3.3,0,0,0,.255.085c0,.043-.043.043-.085.085h.085c.043,0,0,.043,0,.043s-.085.085-.085.128.043,0,.043,0a.17.17,0,0,1-.043.128h.043c-.043.043-.043.128-.085.17h0l.085-.085c0,.043,0,.085-.043.085h.043c-.043.043,0,.043,0,.085a.043.043,0,0,1-.043-.043h0c0,.043-.043.128-.085.085l-.128.128c-.085-.043-.085-.085-.17-.043a.043.043,0,0,1,.042-.043c-.085-.043-.17,0-.255-.085h-.085c-.042-.085-.17,0-.255-.085h-.043c-.043,0-.128-.043-.128.043s-.17,0-.3,0m-.978-.213c-.128,0-.213.213-.34.213s-.17.085-.213.17-.34.128-.468.043a.255.255,0,0,1-.3.085c-.085.085-.255.128-.3.255s-.085-.043-.043-.085-.043.043-.043.085-.17.043-.17.128a.51.51,0,0,0-.383.128h-.043c-.085.17-.213.17-.425.17s.043-.085,0-.17h.128c.043,0,.043-.043.043-.085s.043,0,.085,0,.128-.213.255-.213.17-.17.3-.128l.085-.085c.128,0,.255-.128.425-.128h.043l.3-.085a.34.34,0,0,1,.255-.085c.085-.085.34-.043.468-.213s.085,0,.085.043.17-.085.213-.085a.837.837,0,0,0,.34-.17c.085-.085-.17.128-.213.213m-2.976-1.233c0-.043,0-.085-.085-.085a.085.085,0,0,0,0-.128h.128c.383-.255.85-.213,1.233-.383h.043l.383-.085h.043l.425-.128.3-.085h.255c.043-.043.17-.128.213-.085s0,0,0-.043,0,.043.043.043.043-.043.043-.085.17-.043.255-.043.128,0,.128-.085.085,0,.085-.043a.34.34,0,0,0,.34-.17c.043,0,.043.085.085.043s-.043,0-.043-.043h.085c.043-.043,0-.085.043-.085s-.043.085.043.085a.043.043,0,0,0,.043-.043l.3-.128a.043.043,0,0,0,.043.043h0c.042.043.085.043.128-.043a.17.17,0,0,0,.17-.085c.17.085.34-.128.468-.043s.085-.085.128-.043l.213-.085c-.042.043-.042.043,0,.043l.3-.085c.043-.043.043,0,.043,0a.042.042,0,0,0,.043-.043h.128c.255.043.085.425.128.553h0c.043.213-.085.468-.085.68a.043.043,0,0,0-.043.043.17.17,0,0,1-.043.213h-.085c0,.043.043.043.085.043s0,.043.043.085h-.085c.043.043.085.085.043.128h-.043c-.043.085.085.085.043.128h-.043c-.043,0,0,0,0,.043s-.255-.128-.34-.255h.043a.3.3,0,0,1,.255.128c.043-.043-.043-.085-.085-.128h0c-.128-.043-.255-.128-.383-.085s0-.043.043-.043-.3.043-.34-.085-.383-.128-.51,0l-.51.085h-.213a3.4,3.4,0,0,1-.638.128l-.638.17c-.085.085-.213.085-.3.128l-.425.128-.213.085-.213.085-.51.213h-.085c-.042-.043-.085,0-.085.043h-.17c-.085.043-.17.128-.255.085s-.085-.128-.128-.17a.363.363,0,0,1-.128-.255.2.2,0,0,0-.128-.213m5.06-2.424h-.042a.043.043,0,0,1,.042-.043m.128-.043h0c.085-.085.3-.085.468-.128s-.255.043-.3.128h-.085c-.043,0,.043,0,.043.043s-.128.043-.213,0h.085m.765,2.551c-.043-.043.043-.043.043-.085s0,.043-.043.085m-.383.935h-.043c0-.043.043-.043.043-.085s-.043.085,0,.085m-3.1,7.738H165c.043-.085.213-.085.213-.255h.043c0-.085.085-.085.17-.128s.085-.128.213-.128a2.3,2.3,0,0,1,.51-.383,3.444,3.444,0,0,0,.893-.425c.043,0,.043,0,.043-.043l.255-.128h.043c.043.085.043.085,0,.17h0c.043.17-.085.34-.043.51h-.085c.043.043,0,.043,0,.085h-.213c-.042,0-.042.085-.085.128v-.085c-.085.043-.17,0-.17.128h-.085c-.042.043-.17.085-.213.17h-.255c-.043.128-.213.128-.3.17h-.255v.213c-.128,0-.17.17-.255.213h-.3a.128.128,0,0,0-.042.085c-.043-.043-.128-.085-.17-.043h-.085c-.043-.085.128-.128.128-.255m.255-2.721c.043.043-.085.043-.085.043s.085,0,.085-.043m.213-.085h0m.808,1.7-.128.085.128-.085m.17-.085h0m.17-.085h0m.085-2.041h0m.128,1.956c-.085,0-.085.085-.17.085s.128-.128.17-.085m.043-.085c.17,0,.255-.17.383-.128s.128-.043.128-.085-.17.128-.213.17l-.3.128c-.043-.043,0-.043,0-.085m3.869-2.381v.085c.085-.043.17.043.255.043s.383-.043.425.043.085.085.043.128l.085.085a.383.383,0,0,1,.085-.468h.043l.085-.085c-.042,0-.042-.128,0-.128s.043.043.043.085,0,0,.043-.043a.213.213,0,0,0,.128.128c-.085-.043-.085-.17-.213-.255s-.042-.085.043-.085-.085-.128-.085-.213-.128-.213-.213-.34.085.043.085,0a.425.425,0,0,1-.213-.255l-.383-.255-.765-.17-.085-.085c0,.043.042.043.042.085h-.255c0,.085-.17.043-.255-.043l-.085.128h-.17c-.042-.085-.213,0-.128-.043s-.085,0-.085-.043-.17.043-.255.128-.128-.085-.17-.043.043,0,.043.043-.085,0-.085-.043h-.043c-.043,0,.043.043,0,.043h-.34c-.043.043.043,0,0,.043h-.128c.043,0,.043-.085,0-.043s-.042,0-.042.043h-.17c0-.043.043-.043,0-.043v.085c-.085-.043-.17.043-.213-.043h-.34c0,.043-.085-.043-.128,0s0-.043-.043-.043.043.043.043.043h-.085c-.085,0-.128,0-.085.043h-.043c0-.043.043-.043,0-.043s-.043.085-.128.043-.043.043-.043.085h-.213s.043-.043,0-.043h-.042c.042-.043-.043,0-.043-.043l.085-.085c0-.043.043-.043.043-.085s-.043.043-.085.085,0-.085.042-.085h-.042s.085.043.085-.043h-.085a.085.085,0,0,1,.085-.085c0,.043-.043.043-.043.085s0-.043.043,0,.042-.085.042-.128h.34c0,.043-.043.085,0,.128h.043c.043-.085.17-.085.213-.128h.085c.085-.128.34.043.425-.085s.17,0,.213-.085h.043c0,.043.085,0,.085-.043a.043.043,0,0,1-.043-.043c.085,0,.128,0,.128-.043s-.042.043-.042,0h.085c0-.043,0-.085.085-.085a6.086,6.086,0,0,1,.468-.638h0c.043-.043.085-.043.085-.085s-.043,0-.043-.043,0,.085-.043.085v-.085h.17c0-.085-.043-.085-.043-.085s.17-.128.17-.213-.043.085-.128.128.043-.213.128-.17.042-.085.085-.085.042-.085,0-.128.042-.128.085-.17l-.085.085c-.043.043.085-.17.128-.255h-.043c.043-.043.043-.085.085-.085h.043V50.97c-.085-.043.128-.17.085-.213s.043-.085.043-.128-.043.085-.043.043l.085-.085a.722.722,0,0,1,.085-.213h.085c0-.043-.042-.043,0-.085h-.085c.043-.043.043-.17.085-.085s.085-.17.043-.213,0,.128-.043.17,0-.128.043-.213h.043c0-.043.043-.128.043-.17s-.043,0-.043,0v-.085h.085c0-.043.043-.085.043-.128s-.043.043-.085.043.043-.085.085-.085-.043,0,0,.043.043-.085,0-.085.128-.128.085-.128-.085.085-.128.128.043-.17.043-.255.043,0,.043-.043h0a.043.043,0,1,1,.043-.043l.128-.425c.085,0,.085-.128.128-.085s-.043-.17,0-.17,0,.085.043.085,0-.383-.085-.51.043-.085,0-.128h0a.17.17,0,0,1-.043-.128.043.043,0,0,1-.043.043c-.043-.128-.085-.17-.085-.255s-.085,0-.085-.043.042-.043.042-.085-.128-.043-.085-.085-.085-.17-.128-.255a.936.936,0,0,1-.3-.255c-.085,0-.085-.043-.085-.085s-.085-.043-.128-.085h-.085l-.425-.085h-.808s-.213.043-.255,0a.213.213,0,0,1-.255.043.468.468,0,0,1-.34.085c0,.085-.085,0-.128.043s0-.043-.043,0h.043l-.68.128c.043,0,.043,0,.043.043h-.128v.085c-.213-.043-.3.085-.468.043a1.446,1.446,0,0,1-.51.17l-.34.085-.17.085h-.255l-.17.128a.383.383,0,0,0-.3.128.043.043,0,0,1-.043-.043l-.128.085a.043.043,0,0,0-.043.043,1.318,1.318,0,0,0-.425.213c-.085.085-.213.128-.3.255h-.085c-.043.043-.085.128-.128.128s-.043.043-.043.085a5.288,5.288,0,0,1-.638.553c-.213.17-.085.3-.255.255s-.128-.213-.3-.213-.128-.085-.17-.17-.128-.085-.213-.128l-.255-.128-.128-.085-.51-.128h-.17c0-.085-.128-.085-.255-.085a2.339,2.339,0,0,0-.765-.043c-.128,0-.213.085-.34.043h-.213c-.085.043-.085.085-.213.085a.043.043,0,0,1-.043.043.808.808,0,0,0-.468.213c0,.043.043.043.085.043a3.6,3.6,0,0,1,.6.68h.17c0,.128.128.128.128.255a.425.425,0,0,1,.213.255c.3.043.383.425.553.68s-.043.043-.043.085.043.043.085.043,0,.128-.043.17.085.255.17.34.043.128,0,.17a.059.059,0,0,0,0,.085.148.148,0,0,1,.043.085c0,.043.128.255.085.425a1.626,1.626,0,0,0,.17.935,2.254,2.254,0,0,0,.17.723c.128.043.085.213.213.255l.128.17c.128,0,.128-.085.3-.043v.085h.085c0-.043,0-.085.085-.085s0-.085-.043-.128.128-.043.213-.043.085-.085.128,0,.128-.043.128-.085h.3c.043-.085.17.043.17-.043l.128.085a.043.043,0,0,1,.043-.043c0,.043.085.043.085.043a.042.042,0,0,0,.043-.043l.255.17c0-.043-.043-.043-.043-.085s.3.085.468,0a.4.4,0,0,1,.383,0h.128a1.445,1.445,0,0,1,.6-.085h.085l.085.128h.128c-.043.085-.128.085-.085.213s-.085.085-.213.043.085,0,.085.043-.043.043-.043.085h-.17c-.043.043-.17,0-.17.085h-.085c-.043.043,0,.043-.043.085s-.043,0-.085-.043h-.043a4.378,4.378,0,0,1-.6.17c.043.043-.085.085-.128.043s-.128.043-.128.085a.808.808,0,0,0-.34.128l-.213.085c-.085.128-.3.17-.383.255h-.128c-.043.043-.085,0-.085.085h-.128l-.17.128c-.128-.043-.128.043-.213.043a.509.509,0,0,0-.34.213l-.425.085c0,.043-.043.085-.085.043l-.51.255h-.128c-.128,0-.17.128-.34.128h0c-.043,0-.043-.043-.043,0l-.213.085h0c-.17.043-.34-.085-.468-.043s-.043-.043-.043-.085-.17-.043-.255-.085a.682.682,0,0,0-.51,0V55.9h-.042c0,.085-.043.128-.085.213a1.233,1.233,0,0,0,.085.383.765.765,0,0,0,.085.425,1.955,1.955,0,0,1,.3.3c.043,0,.043.043.085,0s.042.043.042.085.128.043.213.085h.043l.213.128h.213c.128-.043.3.085.383,0h.085c0-.043.085-.043.128,0s.17-.043.255-.043a.638.638,0,0,1,.3-.128l.17-.128h.043l.255-.128a.043.043,0,0,0,.043-.043c.128-.043.17-.17.34-.17s.128-.085.255-.128h0c.383-.128.6-.425,1.02-.468s.085-.043.128.043H162.2c.043,0,.043.085,0,.128s.043,0,.043,0a.468.468,0,0,1-.043.255c.043.128-.043.17,0,.255s-.085.085-.085.128a.64.64,0,0,0-.042.34h-.043c0,.043-.043.043-.043.085h-.042c.042.043.042.043.042.085a.3.3,0,0,0-.085.3.68.68,0,0,0-.17.3h.043a.085.085,0,0,1-.085.085c0,.17-.128.3-.128.425a.468.468,0,0,1-.043.213c.085.043.043.17.043.3s.043.085.043.17.085.043,0,.043.085.213.128.255a.318.318,0,0,1,.085.3c-.043.128.085.043.085.085a1.929,1.929,0,0,1,.085.34c0,.128.085.085.128.128v-.085a.553.553,0,0,0,.383.213c0-.043-.085-.043-.085-.085h.085a.255.255,0,0,1-.213-.34c0,.043,0,.085.043.085v-.085c.128.043.17.17.34.085s.128.085.213.043l.085.085c.043,0,.085-.043.128,0a.043.043,0,0,1,.085,0c.043-.043.17.043.213-.043s.043.043.085.085.085,0,.085.043l-.17.085c.085,0,.17-.128.255-.085l.085-.085c.042.085.085.043.128.085h.213a.043.043,0,0,1,.043.043.042.042,0,0,0,.043-.043l.128.085h.042c.043.085.3,0,.34.085v-.085a.127.127,0,0,1,.042.085h.085c0-.085.128.043.213.043s-.043.128,0,.128h.043A.085.085,0,0,1,165,61c-.043.085.042.085.042.128h.043c0,.043.043.085,0,.128s.043.17.043.3h-.043v.128l.128.085c-.043.043-.085.043-.085.128h.085l-.085.128.085.085c-.085.128.043.255-.043.383a.3.3,0,0,1,.085.255h-.043c0,.128.085.255.043.34a1.06,1.06,0,0,0,.085.6c.085.17,0,.043,0,.085A6.252,6.252,0,0,0,165.557,65c-.042.17.085.3.085.425s.043-.043.043,0a.718.718,0,0,0,.085.213c.043.085.128.043.128.128a.638.638,0,0,0,.17.383l.085-.128c.042.043.042.043.085,0s-.085-.17-.085-.17v.085a1.826,1.826,0,0,0-.043-.213c-.042.043,0,.043-.042.085h0c-.043-.043,0,.043-.043.043s-.128-.17-.085-.255-.17-.085-.085-.128.043.085.043.085h.3c-.043,0,0,.085,0,0s.043.043.043.085-.085-.043-.085-.085-.043.043-.085,0-.043.043-.043.085.085.043.043.085h.042c0-.043-.042-.085,0-.085s.085.17.213.17a.85.85,0,0,1,.17-.34h.043c-.043-.043.043-.085,0-.128h.085c0-.128.128-.085.17-.128a.156.156,0,0,0,.043-.128c0-.043.043-.51.043-.808s0-.085.042-.128a2.253,2.253,0,0,1,.043-.553.808.808,0,0,0,.043-.34c.128-.043.042-.213.085-.3s0-.3.085-.255,0,.128-.043.213h0a1.826,1.826,0,0,1-.043.213,3.022,3.022,0,0,0-.042.6c.043,0,0-.043.043-.043s0,.085-.043.085.043-.085.043-.128h0c.043,0,0-.043,0-.043s.128-.638.17-.978,0,.043-.043.085h-.043c.043,0,0-.043,0-.043h.085a1.531,1.531,0,0,1,.085-.425h.043V62.11h.043c.043-.128-.043-.255-.043-.34s.085-.213-.043-.3,0-.128-.043-.213.043-.043.043-.128-.085-.213-.128-.425.043-.085.043-.128h-.085a.043.043,0,0,0,0-.085c-.042,0-.042-.043-.085-.085s.213-.085.255-.213h0a.043.043,0,0,0,.042.043c.043,0,.128-.085.17,0a.468.468,0,0,1,.34-.085h0l.128-.085.085-.085h.085l.085-.085h.043c.043,0,.043-.085.128-.085s.128-.255.3-.255.085-.17.042-.255.043-.128.128-.17.128-.043.213.043v-.042a.213.213,0,0,1-.128-.3h-.085c.043-.213.17-.255.17-.425s0,.043.043.043a.085.085,0,0,0,.085-.085c-.043-.043-.043.043-.085,0l.128-.255h0c.043-.128.17-.255.128-.425s.085-.34.17-.468.043-.128.085-.213H169.6a.255.255,0,0,0,.043-.17H169.6c.085-.085-.043-.213.043-.3s-.043-.085,0-.128h-.085c0-.085-.042-.085-.042-.128s.042-.043,0-.085a.363.363,0,0,1-.128-.255H169.3c-.17-.128-.3-.3-.51-.34l-.128-.085a.043.043,0,0,1-.043.043c0-.043.043-.043,0-.085a2.926,2.926,0,0,0-.553-.3v.085c-.085-.085-.213,0-.3-.043h0l-.17.128v.085h-.213c-.17-.085-.3.085-.383.085h-.128c0,.085-.043.085-.085.043v.085h-.17a.043.043,0,1,0,.085,0c0,.043-.042.043-.085.043h0l-.213.085h-.043c-.085.085-.255.085-.3.213h-.043c-.042.043,0,.085-.085.043l-.3.17h0c-.042.043-.085,0-.042.085s-.085,0-.128,0V56.2c-.043.043-.043,0-.085,0s-.085.085-.128.085h-.043l-.893.34c-.043.043-.213.043-.3.128s-.085.085-.085,0h.043a.425.425,0,0,0-.213-.17.6.6,0,0,0-.128-.383l.213-.17h0a.383.383,0,0,1,.255-.128h0c0-.043.043,0,.043,0h0c0,.043,0,0,.043,0h.128s-.042.043,0,.043l.17-.085c0-.085.085-.043.128,0a.043.043,0,1,1,0-.085.17.17,0,0,0,.213-.043l.085.085h.17l.3-.085a.17.17,0,0,1,.213-.085c0-.043,0-.043.042-.085h.043c0-.128.128-.085.213-.17l.213-.085h.043c.085-.043.17-.17.255-.128s-.043,0-.043.043.043-.043.085-.043a.043.043,0,0,0,.043.043c-.043-.043,0-.085,0-.043a.043.043,0,1,0,0,.085c.043,0,.043-.043.043-.085h.085c.043.043-.043.043,0,.085h.128c-.043-.043.042-.085,0-.085l.128-.085c0,.085.042.043.085.085l.085-.085h.043s-.043.043,0,.043h.085c.043,0-.043-.043,0-.043s0,.043.043.043h.128c-.043-.043,0-.043.042-.085a.043.043,0,0,0,.043.043c0-.043,0-.043.043-.085h.213c.043-.043.085-.085.128-.043s.128-.085.17-.043-.042,0-.042.043.085-.043.042-.085.17-.043.255,0h.043c-.043,0-.043.043-.043.085l.085-.128v.085c.085,0,.043-.043.085-.085h.043s-.043,0,0-.043h.085c0-.043.042-.085.085-.043s-.128,0-.085.043.085,0,.085.043h-.085c.085.043.17-.043.3-.043s0,0,0-.085h.085c.043.043.128-.085.17,0h-.042V54.8c.042,0,.042,0,.042.043h.085c.043-.085-.085,0-.085-.043h.213c.043,0,.085-.043.17,0h-.085c.043.043.17,0,.128-.043h-.043c.043-.043,0-.043.043-.085s.085.085.128.043l.213.085h.085l.085.085h.042l.085.085h.043c0-.043-.043-.043,0-.043s.043,0,.043.043.17-.043.128,0,.213.085.3.213m-3.231,7.951v-.085c-.043,0-.043.043-.043.085m0,0a.255.255,0,0,0-.085.213c0-.043.085-.128.085-.213m-.085.3c-.043-.043,0-.043,0-.085s-.085.085,0,.085m-.255,1.148V64.7c.043,0,.043-.085,0-.085h0m2.126-9.907h0m-1.531.213h0m-.043,0h0m1.488,3.742h.085c0-.043-.043-.043-.085-.043M167.386,63a.064.064,0,1,0,0-.128.085.085,0,0,1,0,.128m.17-11.225h0m3.146,9.354c.085-.043.128.085.17.085s-.085-.043-.17-.085m2.211,1.488c-.085-.043-.085-.085-.085-.213s-.085-.085-.043-.17-.085-.085-.128-.17a.043.043,0,0,1-.042-.043.6.6,0,0,0-.468-.553c0-.043-.043-.043-.043-.085a.255.255,0,0,1-.255-.128H171.3c-.3-.043-.425-.34-.765-.255a.17.17,0,0,1,.042.128h-.128c-.043.043,0,.085.043.128H170.4a.766.766,0,0,0,.213.3.6.6,0,0,1-.085.255h.085a1.784,1.784,0,0,1,.17.425.3.3,0,0,1,.043.255h.085c-.042.043-.042.043-.042.085s.042.043.042.128a1.84,1.84,0,0,0,.043.213l.128.17c-.043,0-.043,0-.043.043a.776.776,0,0,0,.3.425c.17.085,0,.085.042.128h0c.043.085.128.128.17.255s-.085.085-.17.043.213.043.213.17l.128.085c-.043.085.085.085.085.17s.085,0,.085.043.043.043-.042.085.17,0,.213.085-.17,0-.255.085h.085c.085.128.17.043.255-.043l.085.085c.128-.128.255-.3.17-.468s.17-.128.17-.213h.043c.043-.085.043-.128.128-.17s-.043-.34.085-.383a4.122,4.122,0,0,0,0-.723h.043c-.043-.085,0-.128.043-.17m-1.446-6.931c0-.085-.043-.085-.043-.17s0,.128.043.17m.638,9.014h.128c0-.043-.085-.043-.128-.043m.935-1.063c.085-.17-.085-.3-.128-.425a.043.043,0,0,0-.043.043h.043c0,.043-.043.043,0,.085s.043-.043.043,0a2.393,2.393,0,0,1,.085.425c0,.17.043-.043.043-.085a.043.043,0,0,1-.043-.043m11.693-8.631c0-.043,0-.043-.042-.085s0,.085.042.085m-4.72,2.891a.17.17,0,0,0,.085.128l-.085-.128M167.3,55.307h.085c0-.043-.042-.043-.085,0m20.749,3.657c.17-.255-.17-.383-.085-.638s-.085-.085-.128-.17a.587.587,0,0,0-.128-.17h-.043l-.085-.085h-.128a.34.34,0,0,0-.34-.128h-.043c-.085.043-.17-.085-.17,0s-.085-.085-.17-.043v-.085h-.213c-.085-.043-.17,0-.213-.085a.043.043,0,0,1-.085,0h-.128c.043.043.085,0,.085.043h-.085s.043,0,0,.043h-.085c0-.085-.043-.128-.085-.128s.043.043,0,.043-.043-.043-.085-.043h-.17c-.043.043-.213-.085-.3,0s.043-.043,0-.043h-.808v.085h-.3c0,.043.043.043,0,.043h-.085c.043,0,.043.043,0,.043s-.043-.043,0-.043-.043.043-.043.085-.043-.043-.043,0h-.383c-.043-.085-.17-.043-.255,0h-.3c0,.043-.085,0-.128.085s-.128-.085-.213,0l-.085-.128c0-.085.17-.17.085-.213a.128.128,0,0,0,.128-.128c0-.043-.043-.043-.043-.085a.482.482,0,0,1,.255-.255c.128-.043,0-.043,0-.085a.257.257,0,0,1,.17-.213c.128-.043-.043-.043-.043-.085s.085-.043.17-.043-.043-.085.043-.085v-.17c.043,0,.043-.043.043-.085s.043-.043.043-.085.128.043.213-.043a.128.128,0,0,1-.043.085h.34c.043-.128.17-.255.255-.255s.213-.17.255-.255.17-.213.128-.34-.043.213-.17.213v-.085c-.043,0-.043-.043-.043-.085s-.043-.3.085-.425h-.043c.085,0,.17.128.17.213a.043.043,0,0,0,.043-.043c0-.17-.255-.17-.213-.383h-.085l-.128-.213c0-.085-.128-.213-.17-.3s.128.17.128.255h-.043c0-.128-.085-.128-.128-.213h.043l-.17-.128c0-.085-.043-.128-.085-.128s0-.043.043-.085-.085-.085-.128-.128a.042.042,0,0,1-.043-.043c.043-.085-.085-.085-.17-.043a.128.128,0,0,0-.043-.085c-.043.043.043.043,0,.085a.255.255,0,0,1-.043-.17c-.085.043-.128-.085-.213-.085v-.085c-.043,0-.085-.043-.128,0s-.043-.128-.085-.17-.128-.17-.213-.043-.128-.17-.213-.085-.17,0-.128-.128h-.51l-.213.128h-.17c-.17-.085-.17.128-.213.213s-.17.085-.255.085h-.085a.255.255,0,0,0-.042.17.042.042,0,0,1-.043-.043c-.085.085-.128.3-.3.213s-.213.085-.3.213-.043.043-.128.043,0,.085-.043.085h-.085c-.043.043-.085.085-.043.128s-.213,0-.255.085-.17,0-.17.085-.085.043-.17.085h-.128c-.085,0-.128.085-.17.128s-.128,0-.17.043,0-.043-.043,0-.17-.043-.255.043a7.231,7.231,0,0,1-.935-.043c-.085.17.128.255.17.383h0a1.744,1.744,0,0,0,.3.468h-.042q.128.085.128.128h.085c-.043.043.085.043.043.128s.085.085.17.085.043.085.043.17.128,0,.085.043a.383.383,0,0,1,.255.255c.085-.043.17.043.255.043h.085c0,.043.043.128.043.17h.128c.085,0,.085.128.128.17h.043c.043,0,.043.043.043.085h.128c.043.043.043.085.085.085h.383l.3.128c.043,0,.085-.085.128-.043a.6.6,0,0,1-.085.255c0,.043.043.043.043.085a.353.353,0,0,1-.128.3c-.128.085-.042.17-.042.255h-.043V57.9c-.043,0-.043.085-.085.043h0c0,.043-.043.128-.085.128l-.128-.17c.043.128.17.17.128.3s-.043.043-.085,0-.043.043-.043.085h-.085a1.36,1.36,0,0,1-.128.383l-.3.085c0,.043-.128,0-.17.085s-.213.085-.383.085-.128.043-.128.085a1.036,1.036,0,0,1-.553.17.255.255,0,0,1-.255.128c-.17.17-.383.128-.638.213H177.5a.383.383,0,0,1-.383-.34,2.169,2.169,0,0,0-.638.3c-.17.043-.213.255-.213.383h.043l.213.3a2.932,2.932,0,0,0,.213.553.34.34,0,0,1,.213.213l.213.17h0c.128.043.255.043.3.128s.17-.043.17.043h.3s0,.085.085.043.17-.043.213-.128h.128a.043.043,0,0,1,.043.043c0-.085.085-.085.17-.085v-.085a3.232,3.232,0,0,0,.68-.255h.17c.085-.085.3-.043.425-.128h.3l.213-.085h.128a.043.043,0,0,0,.042.043l.425-.128h.085l.085-.085h.085c0-.043.043,0,.085-.043a.043.043,0,0,0,.043.043c.085-.128.3-.085.34-.213l.085.085c.043-.043.085-.085.128-.043s.043-.043.043-.085.17-.043.255-.043a1.281,1.281,0,0,0,.51-.128c.128-.085-.042,0,0,.043h.213c0-.043.043-.043.128-.043h.128c.043,0,0-.043,0-.043a.64.64,0,0,1,.34-.043.553.553,0,0,1,.51-.043h.128c.085-.043.17.043.3-.043s.17-.043.3-.043h.34l.213-.085c-.043.085.043.085.128.043s.255.043.3,0,.085,0,.128,0h.383l.213.085c.043.043.085.128.17.085s.085.128.17.085.043.085.128.085.085,0,.085.085a.043.043,0,0,1,.043-.043c.043.128.213.043.255.128h.128c.043-.043.085-.213.17-.17s.085-.085.17-.085-.043-.128,0-.17,0,.085.043.085v-.085c.043,0,0,.043.043.043l.128-.128h.043c.042-.085.085-.17.042-.213s.043-.085.085-.17-.043-.043-.085-.085m-21.684-3.742h0m.425-.128c.042,0,.085,0,.085-.043h0c.043-.043.043-.043.043,0s-.128-.043-.128,0m.17,0a.043.043,0,0,1,.043-.043h.042c-.042,0-.128.043-.085.085m-.638.17c0-.043.043-.043,0-.085s-.043.085,0,.085m.3-1.531c.043,0,.043-.043.043-.085s-.043.043-.043.085m2.849-2.764c0-.043.043,0,.043,0h-.043m.638-1.531c.043,0,.043,0,.043-.043h0a.043.043,0,0,1-.043.043m-.383,1.191c0-.043.085-.17.043-.213s-.085.17-.043.213M151.441,61.515V61.6s.043-.085,0-.085m-.213-5.187h0c-.043-.043-.043.043,0,.043m.128.723s0-.085-.043-.043h.043m-6-2.976h0m-.085.085h.043v-.085c-.043,0-.043.043-.043.085m6.08,3.657c.043,0,0-.043,0-.085h0c0,.043-.043.085,0,.085m-.128-.3c.043,0,.085-.085,0-.085v.085m15.817,7.611s.043-.085,0-.128-.042.128,0,.128M147.4,49.269c.043,0,.043-.043,0-.085v.085m-1.743,5.655c0-.043-.043-.043-.043-.085s0,.085.043.085m3.231-4.379c.043,0,.085,0,.085-.043h-.042a.043.043,0,0,1-.043.043m.17,0h.043c0-.043-.085-.043-.043,0m-.723.34h-.043c0,.043.085,0,.043-.043h0m-.765-1.743c0-.043.085,0,.085-.043s-.043,0-.085,0,.043,0,0,.043h0m-1.828,5.953c.043-.043-.043-.128-.085-.128l.085.128m1.488-5.783h0m4.039,7.993c-.043,0-.043.128,0,.128s.043-.128,0-.128m0-.3c-.043.043-.043.043-.043.085h.043c0-.043.043-.043,0-.085m0,.425c0,.043-.043.043-.043.085s.085-.043.043-.085M163.006,61.3c0-.043-.128-.043-.128,0h.128m-.085.043h0m4.124,3.487a.212.212,0,0,0-.042.128h.042c-.042-.043,0-.085,0-.128m-4.422-3.444h0M167,65.129c0-.043.042-.085,0-.085s-.043.085,0,.085m0,.128c0,.043-.043.085,0,.085s.042-.085,0-.085M128.056,61.6s-.043,0-.043.085.128,0,.128-.043h-.085m38.182,5.272h0m-14.8-5.357c0-.043-.042,0-.085-.085s.043.085,0,.128.043-.085.085-.043m-.128-4.337h-.085c.043.043.085-.043.085-.043M150,50.757c-.085,0-.128-.085-.17-.043s.17.085.17.043m4,15.094h0c0,.043,0,.085.043.085v-.085m6.845-.765c.043,0,.085.085.085,0s-.042-.085-.085,0m-.128.3c0,.043.043.043,0,.085s.128.085.17.128a.425.425,0,0,0-.17-.213m1.361-4.252c-.042,0-.042.085,0,.085a.043.043,0,0,1,0-.085m-1.276,4.124c.043-.085-.042-.128-.085-.17h-.128c0-.085.085-.128.128-.213a.043.043,0,0,1-.043-.043c.043-.043,0-.128.043-.17s.043-.3-.128-.34.043-.043.043-.085h-.085c0-.043.043-.043.043-.085s-.043-.383-.17-.425a.425.425,0,0,0-.17-.34c-.043-.043-.043-.043,0-.128a.17.17,0,0,1-.17-.17c-.043,0-.085,0-.085-.085s-.085-.128-.17-.17-.043-.3-.128-.383a.51.51,0,0,0,.043-.34,1.83,1.83,0,0,0-.085.468c.043.043,0,.085-.043.128s-.043-.213,0-.3H159.6c.043,0,0-.085.043-.128s-.043.255-.085.383,0-.128-.043-.17a.17.17,0,0,1-.043.128c0-.043-.042-.043-.085,0s.043-.043.085,0h-.128c0,.043,0,.128-.085.128s-.085.17-.128.3-.043,0-.085,0l-.17.255c.043.128-.043.3-.043.468s-.128.34-.043.468h-.042a.085.085,0,0,1,0,.128.51.51,0,0,1,.128.383c.17,0,.043.255.213.213s.043.043,0,.128a.128.128,0,0,1,.128.128l.17.085a.468.468,0,0,0,.383.3v.085c.085-.085.17,0,.213,0s.043-.128.085-.085h.128c0-.128.085-.17.085-.255s.213-.043.3.043.128,0,.17.043.043-.128.085-.128m6.293-.6c0,.043-.043.043,0,.085s.042-.085,0-.085m-38.1-3.487s-.128,0-.085.043h.128a.043.043,0,0,1-.043-.043m-.17.043c.043.043-.043,0-.043.043s.085.043.085-.043h-.043m8.376-5.23h0m-7.653,4.762c-.043.085-.128.043-.128.128l.128-.085v.085h.043l-.085-.085m-.085,0-.085.085c.043,0,.085,0,.085-.085m.383-.34h0m-.17.043a.17.17,0,0,0,.043.128c0-.085.085-.085.085-.128h-.128m-.043.213c0-.043,0-.043-.043-.043l-.085.085c.043,0,.043-.085.128-.043m7.526-4.507a.043.043,0,0,0,.043.043c0-.043.043-.043.043-.085h-.085m-7.441,4.549-.085.085c.043,0,.085,0,.085-.043h0m-3.231.978h0m-.213-.255c0,.043-.043.085,0,.085s.085.128.17.085-.043-.043,0-.043.043.085.128.128a.851.851,0,0,0-.3-.255m3.742-1.105c0-.043-.042-.043-.042-.085s-.085,0-.043.043h.043c-.043.043-.043.043-.043.085s.043,0,.085,0m-1.658.3h0m-2,.468h0m2.381.425h-.043c.043-.043.085.043.085,0h-.043m8.589-5.357c.043,0,.17.128.128,0s-.085-.043-.128,0m-8.5,5.23h0m-.213.17c0,.043-.085-.043-.085.043h.085m-1.531.468h.085c0-.085-.085-.043-.085,0m11.905-9.142-.085.085c.043,0,.043,0,.043.043s-.085.128-.043.213a.155.155,0,0,1-.085.213c-.085.043,0,.3-.085.3v.085h-.043a.85.85,0,0,1-.128.468c-.085-.128-.213-.043-.3-.085h-.255c-.128,0-.3.085-.383.043a.468.468,0,0,0-.34.128l-.255.085c-.042.085-.17.128-.255.213a7.186,7.186,0,0,1-1.531.638l-.213.085c-.128-.085-.213-.043-.34-.043a.13.13,0,0,1-.042-.255c.17-.085-.085-.17,0-.255s-.085-.043-.085-.085.043-.043.085-.043l-.085-.085.128-.085c0-.043-.042-.043-.042-.085s.213-.17.17-.34.043-.17.128-.17,0-.043,0-.043h.043c-.043-.085.043-.128.043-.213h.085c0,.043-.043.043-.043.085a.936.936,0,0,1,.468-.085l.51-.17c.17-.17.553-.043.68-.255h.17a.085.085,0,0,0,.128-.043.043.043,0,0,1,.043.043c.085,0,.043-.043.128-.085h0c.043,0,0,0,0-.043h.128c.042,0,0-.043.042-.085h.128c.043,0-.042,0,0,.043s.085,0,.085-.043h.085c.043-.085.213-.043.213-.17s0,0,.043.043.085-.128.128-.043h-.043c0,.043.043,0,.085,0h-.042c.042,0,.085,0,.085-.043s.085.043.17,0a.043.043,0,0,0,.043-.043c.128.043.17-.043.255-.17s-.042.043-.042.085.128-.085.213-.043-.043,0-.043,0a.043.043,0,0,1,.043-.043.043.043,0,0,0,.043-.043c.043.043.085-.043.128-.043s0,.128.043.213-.128.128-.043.128m-.808,2.806c-.043.085-.085.043-.128,0h.128m.043.255c.042.17-.085.255-.213.213s-.34.043-.51.043h.042s-.085-.043-.042.043l-.34-.128h.042c-.085.085-.17,0-.3,0a2.3,2.3,0,0,1,.51-.383.128.128,0,0,1-.128.128c.043.043.128-.043.213-.043s-.128.043-.17.128h.213c-.042.085-.128.085-.213.17l.17-.085h.17a.043.043,0,0,1-.043-.043h.17c0-.043-.042-.043,0-.043h0c.043,0,.043-.043.043-.085s.17-.085.255-.128,0,.085.043.085h-.043c0-.043-.043-.043,0-.043s-.17.128-.255.085.043,0,.043.043l.17-.128h.043a.085.085,0,0,0-.085.085l-.17.085c.042.043.085-.043.128-.043s0,0,0,.043h.043c.043,0,.043.043.085,0s-.085,0-.043-.043h-.043c0-.085.085-.085.17-.128h.128s-.043.085,0,.085h0a.042.042,0,0,1-.043.043m-1.063,6.59h0c-.042,0-.042.043-.042.085s.042,0,.042,0l-.085.085h0c.043,0,.043,0,.043-.043h-.043c.043-.085,0-.213.043-.255v.128h.085m-.085.553h0c-.085-.043,0-.085,0-.128h0c.043.043.043,0,.043-.043a.043.043,0,0,1,.043.043h-.085m.043-.17h-.085a.127.127,0,0,0,.043-.085c.043,0,0,.043.043.043m-.043-.213c.085,0,0,.085,0,.128s.043-.085,0-.128m.043-.425c0-.043,0-.043-.043-.085s0-.213.043-.3v-.043c.085.128,0,.213.043.34a.261.261,0,0,1-.043.255m.383-6.505c0-.085.043-.085.128-.085s.043.043,0,.043h.043c-.043.043-.085,0-.085.085h-.085m0,.043h-.043c0-.043,0-.043-.043,0h.085m-.553.638c-.043-.043-.043,0-.085,0h0c-.085.043-.213.17-.34.128s-.085.085-.128.128a.17.17,0,0,0-.255.128l-.51.085h-.085c-.043.085-.17.128-.213.043s-.128-.043-.213-.043.043-.085.043-.128l-.128-.213a.383.383,0,0,0-.043-.213c-.042-.043-.042,0-.085,0s0-.043-.043-.085l.085-.085c-.043-.085.042-.128.042-.17s.3,0,.34-.128a5.23,5.23,0,0,0,1.658-.34h.128l.3-.17-.213.255c0,.043.043-.043.043,0s-.128.085-.17.128.128-.085.213-.128-.3.255-.383.383l-.17.128h0c-.042.043-.085-.043-.128,0s.085,0,.085.043h0c0,.043.085-.043.085.043s.085,0,.085-.085l.3.085c-.043.043.042.043,0,.085h-.085c-.043-.043-.085,0-.128,0s-.043.043-.043.128m-.128,4.847v-.085c.043,0,.043.043,0,.085m0-.255s.043.128,0,.128.043-.085,0-.128m-.17,3.146h0m-.425.3h.085c0-.128.17-.085.213-.085h.042c-.042.085-.213.085-.34.085m-3.1-2.041c-.043.043,0,.043,0,.085s-.17-.043-.17-.085h.085c0-.043.128-.085.17-.043s-.042.043-.085,0m-.085-.17c.043.085-.085.085-.085.043h.085m.17.085c0,.043-.042.043-.085.043s.043-.043.085-.043m-.042-.213c.042-.043.085.043.085.043h-.085c-.043,0,.042-.043,0-.043m2.934,2.424h.043c0,.043-.043,0-.043,0m-.085,0h.043c0,.085-.043,0-.043.043m-1.531-12.756c-.043-.043.043-.085.085-.128s-.085.085-.085.128m-.043.17c-.128,0-.128.128-.213.17s.128-.17.17-.255,0,.043.043.085m-.383.468c-.043,0,0-.043.042-.085a.128.128,0,0,1-.042.085m-2.636,6.208h-.085s.043,0,0-.043h.043c0-.043-.043,0-.043-.043h.085a.127.127,0,0,1,0,.17m-.085.085h-.043c0,.043.043,0,0,.043s-.042.043-.042,0a.128.128,0,0,1,.128-.128c0,.085,0,.085-.043.128m0,.213s-.043.043-.043,0h.043m-.425-1.956h-.085c.043,0,.043-.043.085,0h0m-.255.425c0-.043.042-.043.042-.085s0,.085-.042.085m-.6,1.7c0,.085-.128.17-.17.213h.043c-.043.043-.085.128-.17.128h.043l-.085.085c0-.043,0-.085.043-.085h.043c0-.043.128-.043.085-.128h0c0-.043.043-.085,0-.085h.128c.043,0-.042-.043,0-.043s.085-.043.128-.128h.043c0,.043-.043.17-.128.128m-.3.425c-.085-.043-.085.085-.128.128s-.3.17-.34.3-.043-.085-.128-.085h.17c.043-.043-.085.043-.085,0h.043v-.085h-.043c0-.085,0-.17.128-.17a.085.085,0,0,1,.085-.085l-.085.085c.043,0,.085,0,.085.085s.042-.085.085-.043h.043c0-.043.042-.043.128-.043s.043.043.043,0v.085m-.638.51h.043l-.34.3c-.085-.043-.043.085-.128.085s-.17.213-.34.255h.17c.043,0-.043.043,0,.085a.043.043,0,0,1-.043-.043h-.043c0,.043.043,0,.043,0s-.085.043-.085.085h0c-.17,0-.34.17-.553.17h-.128c.085.043.128-.043.213-.043h0l-.213.128h-.17c-.043-.043,0-.085-.085-.085h.17c0-.043-.043-.085-.085-.043s.128-.043.128.043v-.085h.085c0-.043-.043,0-.043-.043h.085c0,.043,0-.043.085,0s0,0,0,.043H127.8c0,.043.128.043.085,0h.128c-.043-.043-.043,0-.128,0s-.043,0-.085-.043-.043.085-.085,0-.085.085-.128.085.085,0,.128-.043.043-.128.085-.085h.085c.043.043.043-.043.085-.043s0,.043,0,.043h.213c-.043-.043-.043.043-.085,0s.043-.043.085,0a.043.043,0,0,0,.042-.043h0a.383.383,0,0,1,.213-.128c.043,0,0-.043,0-.043a.935.935,0,0,0,.255-.213h.128a.043.043,0,0,1,.043-.043h.043c-.043-.085.085,0,.085-.043s-.085,0-.043-.085.128.043.085.085l.085-.128.128.085-.128.085m-.213.893h0m-.128-.128h-.255c.043-.043.043.043.085,0h.085c0-.043-.043-.043-.043-.085s.17-.043.3-.043-.043.043,0,.085l-.17.128m-1.276.935c0-.085-.085-.043-.128-.085h.085c0,.043-.043-.043,0-.043h.085c0,.043,0,.085-.043.085m-.255,0h0c.042,0,.085,0,.085.043h-.085m.213-.468c-.043,0,0,0,0-.043h.043s-.043,0,0,.043,0,.043-.043,0m.128-.638-.085.085.085-.085m.085-.085c0,.043-.043.043,0,.085s-.085,0-.043-.043h.043m.17-.128c0,.043-.043.043-.085.043h.085m.043-.043c.043,0,0,.043,0,.043v-.043m.085-.043h-.043v-.085m1.828-1.786h0c0,.085-.085-.043,0-.043m-.425,2.3a.043.043,0,0,0,.043.043h-.043c-.043,0,0-.043,0-.043m-1.19,0s.043-.043-.043-.043h.043c0,.043.043.043.043.085h-.043m-1.105.085c.085,0,.128-.043.17,0s-.17.085-.17,0m-.043-.043h-.043a.085.085,0,0,0,.085.085c-.043.043-.128.043-.128-.043h-.17c.043-.043-.085-.043-.085-.128a.3.3,0,0,0,.255.085h0c.043.043.085.085.128.043h-.043m-.425-.425c-.128,0-.128-.085,0,0m-.085-.085a.043.043,0,0,1-.043-.043h.043m-.128,0c0-.043.043,0,.043-.043h-.043m9.907-12.756c-.043,0,0,0,0-.043h.043c0,.043,0,.043-.043.043m4.762,4.677h.085c-.043-.043-.085.128-.085.17h-.085l.085-.085c-.042-.043-.042-.085,0-.085m.085-.213h.043a.043.043,0,0,1-.043-.043m-1.786,4.762c0-.17.255-.17.255-.425s.213-.17.255-.3,0-.255.128-.3V56.54a.34.34,0,0,0,.128-.34c.043-.043.043-.085.085-.085s.085-.213.085-.383h.043c0-.043-.043-.043-.043-.085a.449.449,0,0,1,.085-.213l.213-.468c0-.085-.042-.17,0-.255s-.042-.043-.042-.085l.085-.128h-.043c-.042-.043.043-.085,0-.17a.213.213,0,0,0,.085-.255c.128-.085.043-.213.043-.3l.128-.085c0-.043,0-.17.043-.213h.128c-.043.043.042.085,0,.128s.085-.128.042-.213.043.043.043,0,.042-.255.17-.3,0-.128.085-.17,0-.128,0-.17.043-.34.17-.383a.17.17,0,0,1,.043-.128h0c0-.085,0-.085-.043-.128s.043-.085.085-.085h.042c0-.043.043-.043,0-.085h-.042c.042-.043.085-.085.042-.085h-.042l.085-.128c-.085,0-.128.085-.128.17s.085,0,.043.043h-.043c0-.085-.043-.128-.043-.17h.043c-.085-.043-.128-.128-.043-.17h-.085V51.48h-.043c.043,0,0-.085.043-.085v.085c0-.085-.085-.17-.085-.255h-.085c-.042-.128-.128-.17-.17-.255s-.085-.043-.17,0-.17-.128-.085-.213h-.085c-.043-.085-.255,0-.255-.17s-.128-.043-.213-.043-.085,0-.043-.043-.043,0-.085,0-.043-.043-.043-.085H140c-.043-.085-.17,0-.213-.043s-.3-.128-.34-.3-.128.085-.213.043a.213.213,0,0,1-.17.085V50.12c-.085.128-.213.085-.34.128s-.043.213-.17.255,0,.085-.043.085-.043-.043,0-.043H138.3a.213.213,0,0,1-.213.128c-.043.085-.17.085-.255.128s0,.085-.042.085h-.085c-.043.085-.085.17-.213.17h0c-.128.043-.128.213-.3.213l-.3.3a9.014,9.014,0,0,0-.85.51s-.042.085-.085.043a.042.042,0,0,1,.043-.043c0-.085.128-.213.17-.34s.043-.085.128-.128.043-.085.043-.085h0c.043-.043.043-.043,0-.085s.043-.085.128-.085-.043.043,0,.043,0-.043-.043-.085l.17-.255c.043,0,.085,0,.085-.043H136.6c.043-.085.085-.255.213-.213h0c-.043,0,0,.043-.043,0s0-.085.085-.043,0-.043-.043-.043.17-.085.085-.128h.085c.085-.128.085-.213.213-.3a1.828,1.828,0,0,1,.17-.3c-.043,0-.043-.085.043-.085s.17-.085.17-.255.213-.3.34-.425h.043c0-.043,0-.085.085-.085s.128-.213.17-.34.128-.128.255-.085.085-.085.085-.17.043,0,.043,0a.594.594,0,0,0,.17-.34h.043c.043-.085.043-.17.085-.213s.043.043.043,0,.085-.043.085-.128h.085c0-.085.085-.085.128-.128s-.043,0-.043-.043.043,0,.085,0-.042-.17.043-.213V47.4a.043.043,0,0,0-.043-.043c0-.043.043-.043.043-.085s-.043-.128,0-.17,0-.085-.043-.17h-.042c.042-.043,0-.128-.043-.17s.043-.043.043-.085a.567.567,0,0,0-.213-.255v-.128H138.9l-.128-.128a.043.043,0,0,0,.043-.043l-.128-.085c0-.085-.042-.085-.085-.128a.085.085,0,0,0-.085-.085c0-.043-.043-.128-.17-.085s0-.043,0-.085a.638.638,0,0,1-.3-.128.085.085,0,0,1-.085.085.17.17,0,0,0-.043-.128c-.17.043-.425-.085-.553,0s-.043-.043-.043-.085h-.34l-.128.128c-.085.043-.17-.043-.255,0h-.3c-.085-.128-.128.043-.213,0s0,.043-.043.043-.17.043-.255-.043,0,.043-.043.043h0c-.213.085-.383.043-.51.17s-.255.043-.34-.043-.043.085-.085.085a1.02,1.02,0,0,0-.383.128h-.085l-.17.085c-.085-.043-.213.043-.255.128h-.17c0,.043,0,.043-.043.043a.255.255,0,0,1-.3.043c-.085.085-.213.17-.34.085h-.085v.213a.17.17,0,0,1-.213,0l-.128.128h-.085c-.042.043,0,.085-.085.128s-.043-.043-.085-.043a.091.091,0,0,0-.085.085h-.043c-.043.043-.085.085-.128.043a.17.17,0,0,1-.043.128h-.085c0,.043,0,.085-.085.043v.128a.085.085,0,0,0-.128,0c-.085.085-.255,0-.34.128h-.085a.34.34,0,0,1-.34.3c0-.085-.043-.128-.128-.085s-.043.128-.128.128V47.7a.043.043,0,0,0-.043-.043.17.17,0,0,1-.255.128c.043.085-.085.085-.128.043s-.17.043-.255.128a.043.043,0,0,0,.043.043h-.17c-.043.043,0,.043,0,.085s0,.043-.043.043l-.255.085h-.085v.085c-.085,0-.085.128-.17.085s-.128,0-.17.043.042.043.042.085-.085,0-.128,0,0,.085-.042.085-.128.085-.213.043v.085c-.085-.043-.085.043-.17.043a.043.043,0,0,0,.043.043c-.085,0-.085.085-.17.085s.043.213-.043.3.17.085.17.213,0-.043.043,0a.34.34,0,0,0,.213.213h0c.128.043.128.17.213.213a.128.128,0,0,1,.128.128h.213c0,.085.128.043.128.128h.085c0,.128.085.128.128.17s.085.128.213.085.128.085.17.17h.128c.043.17.255.085.34.213h.255c0,.043.085.043.085.085s0-.043.043-.043.34,0,.425.085.213.043.3,0,.085.043.085.085h.085c0,.043.042.043.042.085h.213a.043.043,0,0,1,.043.043c.085-.085.17,0,.213,0h.085c.042,0,.042.085.085.085s.085-.128.17-.085a.043.043,0,0,0,.043-.043h.213c.043-.043.085-.043.085-.085h.085c0,.128.085.085.17.085a.17.17,0,0,1,.255-.128c0-.085.043-.128.17-.128s.043.085.128.128h.085c.043-.085,0-.17.085-.17s0-.085,0-.128h.213c0-.043.043-.085.085-.128s-.043,0-.043-.043.17.043.213-.043,0-.043.042-.085a.085.085,0,0,0,.128.043c0-.043-.042-.043-.042-.085l.128-.085c-.043-.128.043-.17.17-.17a.34.34,0,0,1,.213-.213c-.042-.043,0-.043.043-.085s.128-.085.213-.17-.043-.043,0-.043l.128-.128c.043-.043,0-.085.043-.085h.17c0-.085.043-.128.085-.213a.043.043,0,0,1,.043.043c.043-.043.043-.043.043-.085s.085,0,.17,0,.043-.128.085-.128.042,0,.042.043a.382.382,0,0,1-.213.255c-.128.043-.085.128-.085.3s-.085.128-.128.213h-.085c0,.17-.17.213-.128.34s-.085,0-.085.085a.043.043,0,0,0-.043.043.637.637,0,0,0-.128.3c-.043.043-.128.043-.128.17h-.043a4.422,4.422,0,0,0-.425.765h-.043v.17c-.085.085-.085.213-.17.3s.043-.128-.043-.085h.043l-.128.085c0,.085-.17.17-.17.3h-.042c-.128.128-.213.34-.34.468s0,0,0,.043a.136.136,0,0,1-.128.128,3.87,3.87,0,0,1-.468.68h-.128c-.043-.043-.085-.085-.043-.17s-.128-.085-.128-.17-.043-.085-.128-.043.042-.043.042-.085-.042-.085-.128-.085h-.085V52.8h-.085a.255.255,0,0,1-.128-.213s-.043.043-.043,0,0-.17-.085-.17h-.043c0-.043-.085-.043-.128-.085s.043,0,0-.043,0-.043-.043-.043a.043.043,0,0,0-.042.043l-.255-.085c-.042-.043,0-.085-.042-.128a.36.36,0,0,0-.3,0h0c-.128.043-.255.043-.34.128s-.17,0-.17.085v.128h-.085c0,.043-.043.085-.043.17a.043.043,0,0,0-.043.043c0,.043.043.043.043.085h-.128V52.8c0,.043-.043.043-.085.043a.957.957,0,0,0-.043.553c.043.213-.085.043-.085.085s.085.085.085.128-.085.043-.085.128.043.043.085.043.043.213-.128.213,0,.17.085.17h.085c-.085.043-.043.128,0,.128h-.128c0,.128,0,.17-.042.213v.085c.128.128,0,.34.17.383s-.043.085,0,.128-.043,0-.043.043.085.085,0,.128h-.043v.085c.043,0,.085.043.043.085h.085c-.043.085,0,.17-.085.17s0,.128.043.128-.043.043-.043.085a.719.719,0,0,0,.255.3c.128.085.043.085.043.17s0,.17-.128.17-.043.3-.085.425a.17.17,0,0,1,.043.128h.043c-.043,0-.085.085-.085.128h0c-.043.255-.255.383-.383.6s-.085.17-.17.213-.085.043-.085.085.128-.043.128-.085a1.914,1.914,0,0,1,.383-.425c-.128.213-.34.383-.468.6l-.383.425h.043a3.956,3.956,0,0,0-.553.638c.043.043-.128.085-.213.128s-.042.043-.042.085h.042l-.17.17c0-.043-.085,0-.085.043h.043s.043.043,0,.043h-.17c-.043.085-.213.17-.3.255s-.043.085-.085.17.043-.085.085-.085h.128c-.085.043-.128.128-.213.128s.043,0,0,.043v.085c-.042-.085.043-.085.043-.128h-.085a.17.17,0,0,1-.043.128v-.085h-.043c-.043.085,0,0,0,.043s-.128.128-.17.17a.128.128,0,0,1,.128-.128c.043-.17.255-.255.34-.383s-.213.085-.213.17-.085.085-.17.043-.085.085-.043.085-.213.255-.34.255-.128.128-.17.17h0c0,.085-.085.085-.128.128s.043-.043.085,0l-.128.085c0-.043,0-.043-.043-.043a.127.127,0,0,1-.043.085c.043,0,.17-.085.17,0h.043l-.425.128h-.17c.043.085.213-.085.3,0h-.085l-.128.085c0-.085-.043-.043,0,0s-.085-.085-.17-.085.043,0,.043.043-.043,0-.085.043.043-.085,0-.085h-.3c-.043-.043.043-.043,0-.085h-.255c0,.043-.085-.043-.085,0s.17,0,.085.085.043-.043,0-.043h-.085a.043.043,0,0,1-.043-.043v.085c0-.043.043,0,.043.043H126.1c.128.043.085.128.213.128h.042c0-.043.085.043.085,0h-.085c.043-.043.043,0,.043-.043s.085,0,.128.043h-.043c.043,0,.043.043.043,0h.085c0,.043-.043.043,0,.043h.128c.128-.043.213.043.34,0h0a.043.043,0,0,1,.043-.043c.043,0,0-.043,0-.043h.085c.043,0,.043-.043,0-.085h.043c.043-.085.085-.043.128-.043s-.043-.043,0-.085l.128.085h-.17c0,.043.085.043.043.085h0c.043,0,0,0,0,.043s.043-.043.085,0-.17.043-.17.128h.17c-.085-.043-.17.043-.213,0s0-.043,0-.085h-.34v.085h.213s-.085,0-.043.043.17-.085.128,0a.553.553,0,0,1-.51,0h-.085l.085.085h-.085c.085,0,.043.043.043.043h.128a.638.638,0,0,0,.468.17c-.043,0-.043,0-.043.043s.043-.043.043,0v-.085h-.128c.043-.043.17.043.213,0h.043c.043,0,0-.043.043-.043a.215.215,0,0,1,.213.043h.128c.043-.043,0-.043,0-.085s-.043.043-.085.043h-.085s.043.043,0,.043a.043.043,0,0,0-.043-.043l.128-.085h.043l.17-.085s.085-.043.085,0,0-.043-.043-.043,0-.043,0-.043h.468a1.219,1.219,0,0,1-.425.128v.085c-.043-.043-.128.043-.17.043h.128c.043-.085.17-.043.213.043s0-.043.043,0,.085-.043.085-.043h.255c-.043,0-.043-.085-.085-.043h-.128c-.043,0,0-.043,0-.043h-.085c.043,0,.085-.043.043-.043s.3-.213.425-.128h0c.043.043.128-.043.085-.043h-.085c0-.043.043-.043,0-.085h-.3c.085,0,.128-.085.17-.043s-.085-.043-.043-.085h0l.17-.085h0c.043-.043.255.043.17-.085h.085c-.042,0,.043-.043.043-.043a.535.535,0,0,1,.34.043c.128.085.043-.085.085-.043s-.043-.085,0-.085a.156.156,0,0,1,.128.043l-.085-.085h0c0,.043-.043.085-.043.043h-.085c0,.043.043.043,0,.043s0-.043,0-.085v.085a.043.043,0,0,0,.043.043h-.085c0-.043.043,0,.043,0H129.2c0,.043.043.043.043.085s-.085-.085-.085-.128h-.042c-.128-.128.17-.085.213-.213h-.043c.043-.043.17-.17.213-.128l.213-.128c0-.043,0-.043.042-.043v-.085c.043,0,.17-.085.128-.128h.128c0-.043-.043,0-.043,0v.128h.043l.17-.213c.042,0,.085-.128.17-.085s0-.043,0-.085h-.043l.255-.17c0-.085.17-.213.255-.213h.043c0-.085.128-.213.213-.3a.17.17,0,0,1,.128-.085h0c.043.085.043.17-.043.17s-.085.085-.085.17l.17-.085c.043.085,0,.128-.085.128s.043-.085,0-.043a.08.08,0,0,0,0,.128c.043.043.128-.128.213-.128s.043-.085,0-.128.085,0,.128-.085.085-.043.085,0h.042c-.042-.043-.042-.085-.085-.085l.128-.085c0,.043-.043.085,0,.085h.043a.043.043,0,0,0-.043-.043h.128c.043.128.085.255.255.3v.17c.085,0,.17-.043.17.043s.085.128.085.17h.17c0,.043.043.085.043.128h.085c0,.128-.085.128-.085.213l.085.085c.085-.043.128,0,.128.085s.17.043.17.17.085,0,.128,0a.081.081,0,0,1,.043.128h.128c0,.085.085.043.085.128s.085.085.128.043l.17.17a.383.383,0,0,1,.425.085c.17-.085.3-.043.425-.17s.17.085.17.17l.3.17h.043c.085.043.213.17.3.085a.935.935,0,0,1-.425-.468h.043c-.085-.085.17-.128.213-.17s-.043-.043,0-.128h-.085c.043-.085-.042-.128-.042-.213v-.128c0-.085-.085-.17,0-.213h.085c0,.128.128.085.17.043s.085,0,.043.085l.213-.085a.085.085,0,0,0,.128-.043h.085c.043-.085.085,0,.128,0s.085-.213.213-.17h0l.383-.085v-.128h.255c.043.085,0,.17.085.255a1.191,1.191,0,0,1,.043.553h0V61.77c.085,0,.085.085.085.128h-.043c.085.085,0,.17.043.255h-.043a.34.34,0,0,0-.043-.17,1.4,1.4,0,0,0,0,.425c-.043.043,0,.085,0,.128s0-.128.043-.17a2.933,2.933,0,0,1-.043.85.17.17,0,0,0-.043-.128h.043c-.043,0-.043.085-.043,0s0,.3-.085.383,0,.128,0,.213h.128v-.17h-.128c0,.043.043,0,0,.043h.085c-.043,0-.043,0-.043-.043h.043c0,.043-.043.085,0,.128a.085.085,0,0,1-.085.085v.68c-.17,0-.255.085-.383.043a.487.487,0,0,0-.255,0c-.043,0,.043.043.043.085h.128l-.6.085a.043.043,0,0,0,.043.043c-.043,0,0,.043,0,.043h-.383c0,.085-.085,0-.085,0h-.043l.085.085c0-.085.043,0,.085-.085s-.043.043,0,.085.085,0,.085-.043h-.042c.042,0,.085-.043.128.043h.638c0,.043.043-.043.043,0a.043.043,0,0,0-.043.043c0-.043-.043-.043-.043-.085h-.213c0,.085-.085,0-.128,0h-.468a.935.935,0,0,1-.468.085c0,.043-.17.043-.17,0a.043.043,0,0,1-.043.043l-.128-.085c0,.085-.043.043-.085.043a.042.042,0,0,1-.042.043c.042-.043-.043-.043-.043-.043h-.085a.043.043,0,0,0-.043-.043h.043c.042.043,0-.043.042-.043s0,.043,0,0h.043c.043,0,.043-.085.043-.085h0c.042,0,.085,0,.085.043s0-.043.042-.043,0,.043,0,.043a.148.148,0,0,0,.043-.085.213.213,0,0,0-.3.043c-.085-.085-.128-.043-.17-.17s.128,0,.085-.043h-.085c.043.043.043,0,.043-.085s.043.043.043.085h.128c0,.043,0,.085.043.085s-.043-.043-.043-.085h-.128c-.085,0-.128-.043-.17.043s.042.043,0,.043l-.128-.255c-.128.043-.17-.3-.255-.383v-.085H133.5c0-.17.213-.213.17-.383s-.128.085-.213.128-.17.043-.213-.043a.213.213,0,0,0,.043-.128h-.128a.935.935,0,0,1,0-.34h.043c.043-.17.3-.043.3.043s-.085-.17-.043-.213h-.085a.213.213,0,0,0-.085-.17c.042,0,.042-.043.042-.085s.17,0,.128-.085h.128c-.043.043,0,.085,0,.043h0s.042,0,0-.043-.17,0-.255-.085,0,.085-.042.043.042-.085.085-.213h-.085c0,.043,0,.128-.042.128h-.213c-.128.043-.255-.043-.383,0s0,.043.043.043-.34.17-.3.34h-.085l-.34.213c0,.085,0,.128-.043.17h-.043c-.085.085-.043.255-.17.3s.042.043.042.085a.34.34,0,0,0-.128.3.043.043,0,0,1-.042.043h.042l-.085.085c.043.043,0,.043,0,.085a.148.148,0,0,0,.043.085.17.17,0,0,0-.043.128h.043c0,.085,0,.128-.043.17a1.106,1.106,0,0,1,.128.34c.043.085-.043.213.085.213s-.085.128-.042.213.085.085.085.128a.29.29,0,0,0,.128.213c.085.043.043.213.17.213s.34.34.468.51h.128a.255.255,0,0,1,.3.085h.128c0-.085,0-.085-.043-.128h.128c.043,0,.085-.085.128-.043l.085-.085h.043c.043-.085.17-.17.213-.34a.893.893,0,0,1,.34,0c.085-.085.255-.043.34-.128h.085c.085-.128.425,0,.425-.128s.3,0,.34.043h.34c.128.043.255-.043.34.043h.34v.085c.043,0,0-.085.043-.085h.468c.042.043.042-.043.042,0s.34,0,.383-.085.17-.128.255-.17.128-.383.213-.6,0-.17.085-.213-.043-.128,0-.128.043.085,0,.17,0-.17.043-.255-.043.085-.043.043,0-.043.043-.085-.085-.128-.043-.17h.043c-.043-.043,0-.128-.043-.128s.043.043,0,.043v-.51c0-.085.043-.17,0-.255h0c.043-.085-.085-.17.043-.255s0-.085-.043-.128h-.043c.043-.043.043-.128.085-.128s-.043.043-.043,0v-.085a.043.043,0,0,0-.043-.043c0-.043.043-.128,0-.213s.085-.17,0-.213l.085-.128h-.042c.085-.255,0-.6.085-.808h-.043c.043-.383.043-.808.085-1.191h0a.383.383,0,0,1,.043-.3,1.786,1.786,0,0,1-.043-.68v-.085c.085,0,0-.128.043-.17h-.043a.17.17,0,0,0,.043-.128.723.723,0,0,1-.043-.3h.128c.043-.043.085-.043.085-.128a1.063,1.063,0,0,0,.383-.17c.043.043.128,0,.17.085h.043c0-.043-.043-.043-.043-.085h.128a.34.34,0,0,1,.3-.043c-.043-.085.085-.085.17-.085h0c.043-.043.043-.128.128-.128m-3.1-1.148c.043-.043.128-.043.128-.128s-.128.085-.128.128m.85-.3c.043-.043-.043-.043-.043-.043a.043.043,0,0,0,.043.043m-10.545,4.762c-.128-.043-.085.043,0,0M136.6,56.327h-.043c0-.043.085,0,.085-.043H136.6m-8.546,4.635h0m9.652,3.4h0M128.991,60.2h0m-.043.085c.043.043.043-.043.085-.043s-.043.043,0,.085.085-.043.043-.085h-.128m-.765.68c.043,0,.085-.085.043,0s.128.043.128-.043h-.043c.043-.043.085-.043.085-.085s-.17.043-.213.128m1.318-1.148c0-.043.043,0,.085,0s-.085-.043-.085,0m-.128-.043c0,.043-.043-.043-.043,0s0,.085.043.043a.043.043,0,0,0,.043-.043h-.043m1.658-.043h0m-1.02.765c0,.043-.085.043-.085.128h.043v-.085h.085c0-.043,0-.043-.043-.043m.808-.893c.043,0,.043.043.043.085s-.085,0-.17.043a.043.043,0,1,0,0-.085c0,.043-.085.085-.042.085s-.043.085-.085.085.085-.085,0-.128-.128.128-.128.17h.085c-.043.085-.085.043-.085.085h-.085c.043.043-.043,0-.043.043s-.085.128-.128.213.085,0,.085.043h-.085c.043,0,.043,0,.043.043s-.043-.043-.043.043.085-.128.17-.128h0c.043-.043.085.043.085-.043h-.128c.043-.085.085-.043.128-.085h.043s-.043,0,0-.043h.17c0,.043-.043.043-.043.085l.3-.213-.213.085.085-.085c0-.043-.043.043-.085,0s0-.043,0-.043l.213-.17h.085c-.042-.043-.128-.043-.128-.085h.17c-.043-.085.043-.128.043-.17s-.128.213-.255.17m-.723.85c.085,0,.085-.043.085-.085l-.085.085m.085-.17c-.043.043-.043,0-.043.043h-.085c-.043.043-.043.043-.085,0s.042.043.085.043h.085a.042.042,0,0,0,.043-.043m1.361-1.148c-.043.043-.043-.043-.085.043s.085,0,.085-.043m-.34.383h0c0,.043-.043.085,0,.085h0m.128-.17a.042.042,0,0,1,.043.043c0-.043.043-.043.043-.085h-.043c.043.043-.043.043-.043.043m-.383-.043h0m.085-.043-.213.213h.043v-.085a.043.043,0,0,0,.043.043h0c-.043-.043.043-.128,0-.085s.043-.085.085-.043v-.128h0m-.17.3c-.085,0-.085.043-.128,0v.085h.085a.043.043,0,0,1,.043-.043m-4.677,1.956h.085c0-.043-.085-.128-.085-.043m8.121,3.146h.128v-.085c0,.043-.043-.043-.085,0h0m1.02,0c-.043,0-.043.043-.085,0h0c0-.043.085,0,.085-.043m-.6-.128h-.17c.085-.043.17.085.17,0m-.808-.128c0,.043,0,.128.043.128s0-.085-.043-.128m.85.17c.043-.043.043.043.085,0s-.085-.085-.085,0m.128-.085h-.042c-.043-.043.085-.043.042-.043m-.213.3H134.6c0-.043.043-.043.085,0m-.17-.213h-.043a.043.043,0,0,1,.043-.043h0m.043,0c0-.085-.17-.043-.17,0h.085c0,.043.043.043,0,.085s.085.043.085.128h-.085v.085h.043s-.043,0,0,.043a.042.042,0,0,1-.043-.043h.17c.042,0,.042.085.085.085s.085-.085.085-.085h.128l-.085-.085c.043,0,0-.043,0-.043h.085c-.043-.043.213-.085.213-.043a.043.043,0,0,1,.043-.043.6.6,0,0,0-.383.043h.043c0,.043-.043,0-.043,0a.148.148,0,0,1,.043.085h-.17s.043.043,0,.043h-.042c.042-.043.128-.043.17-.128s-.043.043-.085,0-.255.043-.213-.043h0m19.431,1.361c.043,0,.043-.085,0-.085a.043.043,0,1,1,0,.085m17.688-11.65c0-.043-.043-.085-.043-.128v.085c0,.043.043.085.043.043M173,62.62c0-.043-.043-.043,0-.085h-.085v.085h.043m-39.415-.085h.043a.043.043,0,0,0-.043.043m-.128.51a.127.127,0,0,0,.043.085c0-.043,0-.085-.043-.085m-1.871-4.039.128-.128c-.085,0-.043.043-.085.043s-.085.085-.043.085m5.017,4.635c0-.043.085-.085.043-.085s0-.043-.043-.043v.128m-.765.808c0,.043-.085-.043-.085,0h.085v-.085c.085.085.17.043.255.085s-.085-.043-.128-.043.043-.085.043-.085-.085.043-.043.085h-.085m-.255.043h0m1.148-2.253c-.043.043-.085.17,0,.213s-.043-.128,0-.085-.043-.043,0-.085h0M135.5,64.448a.043.043,0,0,0,.043.043c0-.043,0-.043-.043-.043m-8.929-3.316h-.043v.085c.085,0,.085-.085.043-.085m27.382,4.592c.043,0,0-.043,0-.085v.085M134.561,65h0m.383-.043c.042,0,.085,0,.085-.043s-.085,0-.085.043m.128-.213h-.085c0,.085.043.085,0,.085s.043.085.043.043v-.043h.043m.425.043h0m-.042.128h-.043s.043.043.043,0m-.978-.255h0m-.085.255c0,.043.042.043.042.085h.043c0-.043-.043,0,0-.043h-.085m1.743-.51h.043c0-.085-.043-.043-.043,0M127.205,61s-.085.043-.043.043a.043.043,0,0,0,.043-.043m21.77-13.266h0m-.3.043a.043.043,0,0,0-.085,0h.085m-.468.128c-.085,0-.128-.043-.17,0s.128.085.17,0m.765-.17c-.043,0-.128-.043-.128.043s.128,0,.128-.043M128.524,59.856c.043.043-.085.043-.085.085l.085-.085m-1.616,1.233s-.085,0-.085.043.085,0,.085-.043m-.043.085h.17c-.085-.043-.128-.043-.17.043m24.363-13.989c0-.043-.043-.043-.085-.085v.128h.085m-24.406,13.9H126.7v.085h.17m8.334-1.148c0,.043,0,.043.043.043H135.2m76.491,1.7c-1.4.043-2.976.51-4.039.51v-.383c.553-.383,4.039-3.487,2.253-4.337-.68-.34-1.573,0-2.381-.17l-.3-.34V55.647a10.7,10.7,0,0,1,3.019-1.276l.3-.34-.17-.51c-2-1.148-3.784,1.361-4.975,1.743l-.213-.128a5.539,5.539,0,0,1,.3-1.743l1.828-.3,1.105-.723c.68-.128,1.105,0,1.658-.425l-.128-1.233,2.041-1.828c0-1.4-1.786-1.7-3.1-1.658-.978.85-3.614,2.211-4.252,3.146a.17.17,0,0,1,.043.128c.6-.128,2.211-1.488,2.721-.893-.255.468-1.828,3.146-2.339,2.891s-.255-2.679-1.573-2.466c-.17,2.339-.808,4.209,1.02,5.485a.255.255,0,0,1-.042.17c-.3.17-1.4.383-1.573.68l.383.213c.255-.213.6,0,.978-.128s1.488-.893,1.7.043c.383,2.168-2.126,2.041-2.168,3.827l1.02.893a.383.383,0,0,0,.043.213c-.808.935-3.274,2.211-2.083,4,.893-.043,1.7-.893,2.424-1.148,2.211-.808,5.868.34,7.4-1.105a3.109,3.109,0,0,0-.893-1.446M200.295,52.2c-.128-.383-.213-.765-.34-1.063a20.917,20.917,0,0,1,2.594-2.126c-.17-1.318-1.02-1.743-2.509-1.828a10.076,10.076,0,0,1-1.361.553c-.085,1.191-2.083,3.487-2.891,4.082a7.23,7.23,0,0,0,0,1.361l.128.085c1.19-.043,2.3-1.488,2.849-1.233s.128,1.531-.128,1.828-5.442,3.784-6.505,3.572l-.425-.51h-.043c-.468.6-.553,2.764.3,3.146a16.2,16.2,0,0,0,2.3-.723l2.126-1.616c.3-.085.3.213.383.383a6.757,6.757,0,0,0-.68,1.361c-.213.34-.638.425-.85.723s-.128.638-.17.935l-.553.51a3.97,3.97,0,0,0-.128,2.891c1.02.213,1.743-.765,2.253-1.446h.383c0,.043.042.043.042.085,0,.893.128,3.444,1.063,2.849s.255-3.572.935-5.187c.383-.893,1.658-2,2.168-2.976.17-.3,1.02-1.828.425-2.253-.723.255-1.233,1.191-2,1.318v-.128a.383.383,0,0,1-.043-.213,3.911,3.911,0,0,0,.935-1.105c.085-.383-.043-.638.17-.893s1.913-1.02,1.488-2a3.019,3.019,0,0,1-1.871-.383" transform="translate(-47.115 -14.543)" fill="#fff"/>
    <path id="Path_1070" data-name="Path 1070" d="M133.54,108.514a.255.255,0,0,1-.128-.425,9.014,9.014,0,0,0,1.063-1.488h-1.02v-.85H134.9l.34-.85.808.425-.17.425h1.658l.468.425a5.7,5.7,0,0,1-1.063,2.168l-.51.553,1.063.34-.553.765-1.233-.51a11.992,11.992,0,0,1-1.956,1.063l-.553-.765a12.8,12.8,0,0,0,1.616-.638Zm.383,3.146v-.893h3.4l.17-.765.893.128-.085.638h3.954a.538.538,0,0,1,.17.468c0,.255-.043,1.148-.085,1.658a1.87,1.87,0,0,1-.383,1.063,1.658,1.658,0,0,1-.765.425,6.017,6.017,0,0,1-2.764-.213v-1.02a3.491,3.491,0,0,0,2.764.128.638.638,0,0,0,.3-.51,2.211,2.211,0,0,0,0-1.106h-3.529l-.255.383a6.1,6.1,0,0,1-4.082,2.466l-.34-.893,1.233-.34a4.422,4.422,0,0,0,2.424-1.658Zm1.531-5.1c-.34.6-.68,1.105-.978,1.531s-.042.128.043.128l1.063.383a4.762,4.762,0,0,0,1.446-1.871c.085-.128,0-.213-.17-.17Zm4.592,2.636a7.867,7.867,0,0,1-1.573.808l-.553-.765a5.442,5.442,0,0,0,1.573-.68,5.273,5.273,0,0,1-1.063-1.913l.85-.213a4.038,4.038,0,0,0,.893,1.658h0a4.592,4.592,0,0,0,1.4-1.828c.042-.128,0-.213-.17-.213h-3.061v-.85h3.7l.468.425a6.335,6.335,0,0,1-.978,2.211l-.765.765h0a5.783,5.783,0,0,0,2.168.935l-.425.808a6.8,6.8,0,0,1-2.424-1.191Z" transform="translate(-51.196 -48.744)" fill="#fff"/>
    <path id="Path_1071" data-name="Path 1071" d="M162.6,107.2V106.3h3.359v-1.4h.978v1.361h4.379a.51.51,0,0,1,.17.468v3.954c-.042,1.913-.383,3.061-1.063,3.487s-1.658.383-3.274-.085v-1.063c1.4.468,2.339.553,2.764.3a1.573,1.573,0,0,0,.425-.765,8.335,8.335,0,0,0,.255-1.956,19.487,19.487,0,0,0-.042-3.359c-.085-.085-.043-.043-.085-.043h-3.529a12.712,12.712,0,0,1-.808,3.529,8.844,8.844,0,0,1-3.1,3.742l-.723-.68a7.69,7.69,0,0,0,3.657-6.59Z" transform="translate(-67.923 -48.744)" fill="#fff"/>
    <path id="Path_1072" data-name="Path 1072" d="M193.921,106.416v.85H191.2v-.85Zm-1.871,7.866h-.808v-3.274c0-.17.085-.255.3-.255h2a.213.213,0,0,1,.255.255v2.721c0,.213-.085.3-.3.3H192.05Zm1.616-9.184v.808h-2.211V105.1Zm0,2.806v.808h-2.211V107.9Zm0,1.446v.808h-2.211v-.808Zm-1.446,2.211c-.128,0-.17.043-.17.128v1.531h.765c.128,0,.17-.043.17-.17v-1.361a.128.128,0,0,0-.128-.128Zm7.653.213.383.68-1.063.638a6.377,6.377,0,0,0,1.616.808l-.468.723-.17-.085a4.464,4.464,0,0,1-2.806-2.849h-.893l-.255.255v1.531l1.233-.3.17.808a13.224,13.224,0,0,1-3.019.553l-.128-.808.893-.085v-.935l-1.063.6-.425-.68h.043a6.463,6.463,0,0,0,1.531-.893h-1.233v-.723h1.7v-.51h-1.446v-.68h1.446v-.425h-1.7v-.68h1.7v-.425h-1.446c-.085,0-.085-.043-.085-.085v-1.743c0-.043,0-.085.085-.085h2.636a.085.085,0,0,1,.085.085V108.2a.085.085,0,0,1-.085.085h-.383v.383h1.446v-.425h-.425l-.085-.085v-1.7a.085.085,0,0,1,.085-.085h2.594a.085.085,0,0,1,.085.085v1.7a.085.085,0,0,1-.085.085h-1.361v.425h1.658v.68h-1.658v.425h1.488v.68h-1.488v.51h1.743v.723h-2.551a2.636,2.636,0,0,0,.468.808A7.863,7.863,0,0,0,199.874,111.773Zm-2.891-6.973h.85v.553h2.806v.765h-6.42v-.765h2.764Zm-1.828,2.253a.043.043,0,0,0-.043.043v.468h1.361V107.1h-1.318Zm3.019,2.721v-.425h-1.446v.425Zm0,1.191v-.51h-1.446v.51Zm.255-3.912a.043.043,0,0,0-.043.043v.425H199.7V107.1h-1.276Z" transform="translate(-84.535 -48.687)" fill="#fff"/>
    <path id="Path_1073" data-name="Path 1073" d="M220.013,108.9l-.213-.935h.978a27.346,27.346,0,0,0,2.041-3.061l.765.468a18.278,18.278,0,0,1-1.616,2.509l5.357-.425a16.761,16.761,0,0,0-1.318-1.318l.723-.6a36.353,36.353,0,0,1,2.764,3.061l-.723.6-.723-.893Zm1.743,5.612h-.935v-4.422c0-.213.128-.3.34-.3h6.973c.213,0,.34.085.34.3v4.422h-.935v-.468h-5.783Zm5.783-1.361V110.81a.128.128,0,0,0-.128-.128h-5.485c-.128,0-.17.043-.17.128v2.339Z" transform="translate(-100.975 -48.744)" fill="#fff"/>
    <path id="Path_1074" data-name="Path 1074" d="M249.01,107.506a8.2,8.2,0,0,1,1.233,1.02l-.51.6a13.357,13.357,0,0,0-1.233-.978Zm1.361,2.849a9.312,9.312,0,0,1-1.02,3.827l-.85-.255a8.461,8.461,0,0,0,1.063-3.614ZM249.053,105a9.054,9.054,0,0,1,1.318,1.105l-.553.6c-.51-.468-.935-.808-1.276-1.063Zm2.083,3.827-.255,1.276-.6-.17.255-1.233Zm-.68-.425c-.043-.17-.085-.383-.17-.638l.51-.085.51-.553a5.018,5.018,0,0,0-1.02-.723l.34-.638.213.17.6-1.233.6.34a13.64,13.64,0,0,1-.68,1.276l.34.255a9.732,9.732,0,0,0,.425-.978l.638.255a5.993,5.993,0,0,1-1.063,1.7l.638-.128-.128-.34.6-.17a4.762,4.762,0,0,1,.383,1.361l-.6.128-.085-.3-.425.085v1.786h-.723v-1.658Zm.893,5.017-.68-.213.255-1.658c0-.17.128-.213.255-.213h5.655v-.34c0-.043,0-.085-.085-.085h-5.91v-.68h6.548c.128,0,.17.043.17.17v1.913h-.723v-.3h-5.145c-.085,0-.128.085-.128.213v.17h6.208c.17,0,.255.043.255.213a3.571,3.571,0,0,1-.3,1.361l-.17.17c-.553.468-2.338.51-5.272.17v-.723a31.2,31.2,0,0,0,3.614.213,1.924,1.924,0,0,0,1.318-.3c.213-.213.042-.213.042-.425h-5.825Zm1.573-4.677.213,1.105H252.5a6.716,6.716,0,0,0-.213-1.063Zm2.679-.383a4,4,0,0,0-.17-.68l.553-.085.425-.468a5.994,5.994,0,0,0-1.02-.85h-2.339v-.51h2.424v.383l.255-.383.213.128.553-1.105.6.34c-.17.3-.34.68-.638,1.148l.34.34a5.191,5.191,0,0,0,.425-1.02l.68.255a8.633,8.633,0,0,1-1.02,1.658l.6-.085-.128-.383.6-.17c.17.468.3.978.425,1.4l-.638.128-.085-.3-.468.085v1.871h-.68v-1.828Zm-.255-3.444v.553H253.22v-.553Zm-.043,1.573V107h-2v-.51Zm-.043.723v.553h-1.913v-.553Zm-.085,2.764h-1.743l-.085-.085v-1.828h1.913v1.828A.085.085,0,0,1,255.175,109.972Zm-1.233-1.446H253.9v.893h.808v-.893Zm2.338.17a10.665,10.665,0,0,1-.213,1.318l-.638-.17a9.6,9.6,0,0,0,.213-1.276Zm1.7-.128c.17.6.3,1.02.34,1.276l-.638.085a12.059,12.059,0,0,0-.3-1.191Z" transform="translate(-117.472 -48.629)" fill="#fff"/>
    <path id="Path_1075" data-name="Path 1075" d="M282.037,111.51h-3.572a.128.128,0,0,1-.128-.128v-4a.128.128,0,0,1,.128-.128h3.657v-.765h-4.209V105.6h9.1v.893h-4v.765H286.5a.128.128,0,0,1,.128.128v4a.128.128,0,0,1-.128.128H282.93a3.572,3.572,0,0,1-1.02,2.083,14.5,14.5,0,0,0,3.657.3h1.658l-.255.978h-2.211a13.181,13.181,0,0,1-3.742-.638,10.8,10.8,0,0,1-2.976.808l-.34-1.02a9.948,9.948,0,0,0,2.253-.34,5.869,5.869,0,0,1-1.148-1.148l.68-.51a5.147,5.147,0,0,0,1.446,1.233A2.253,2.253,0,0,0,282.037,111.51Zm.085-1.658h-2.891v.808h2.891Zm0-1.786h-2.891V109h2.891Zm.893.978h2.721v-.935h-2.721Zm0,1.658h2.721v-.808h-2.721Z" transform="translate(-134.257 -49.147)" fill="#fff"/>
    <path id="Path_1076" data-name="Path 1076" d="M306.5,111.235a.51.51,0,0,1-.085-.638,28.538,28.538,0,0,0,.893-3.274h-1.021v-.893h1.191l.255-1.531.85.128-.17,1.4h1.7c.128-.043.213.043.213.17a10.457,10.457,0,0,1-1.105,5.4l1.233.85-.425.808-1.276-.893a9.483,9.483,0,0,1-1.871,1.828l-.68-.723a10.374,10.374,0,0,0,1.828-1.573Zm1.743-3.912c-.213,1.063-.553,2.211-.893,3.316v.085l.128.085,1.02.723a9.609,9.609,0,0,0,1.063-4.209Zm2.551-1.233V105.2h4.549l.51.68-2,1.956c-.17.128-.255.255-.255.34a.383.383,0,0,0,.17.34l.383.638h1.786v.893h-1.446a6.418,6.418,0,0,1,.255,2.211,2.2,2.2,0,0,1-1.105,1.913,2.749,2.749,0,0,1-2.551-.468l.213-.978a5.018,5.018,0,0,0,.808.468,1.02,1.02,0,0,0,1.531-.425,3.808,3.808,0,0,0-.128-2.721h-2.891v-.893h2.466a7.986,7.986,0,0,0-.51-.765.552.552,0,0,1-.128-.3.383.383,0,0,1,.128-.255l1.828-1.743Z" transform="translate(-150.639 -48.744)" fill="#fff"/>
  </g>
</svg>
