<svg xmlns="http://www.w3.org/2000/svg" xmlns:xlink="http://www.w3.org/1999/xlink" width="377" height="56.78" viewBox="0 0 377 56.78">
  <defs>
    <filter id="Path_1087" x="132" y="10.137" width="61.054" height="36.919" filterUnits="userSpaceOnUse">
      <feOffset input="SourceAlpha"/>
      <feGaussianBlur stdDeviation="3" result="blur"/>
      <feFlood flood-opacity="0.6"/>
      <feComposite operator="in" in2="blur"/>
      <feComposite in="SourceGraphic"/>
    </filter>
    <filter id="NO" x="180.088" y="4.137" width="49" height="46" filterUnits="userSpaceOnUse">
      <feOffset input="SourceAlpha"/>
      <feGaussianBlur stdDeviation="3" result="blur-2"/>
      <feFlood flood-opacity="0.6"/>
      <feComposite operator="in" in2="blur-2"/>
      <feComposite in="SourceGraphic"/>
    </filter>
    <filter id="_2" x="211.018" y="16.278" width="24" height="31" filterUnits="userSpaceOnUse">
      <feOffset input="SourceAlpha"/>
      <feGaussianBlur stdDeviation="3" result="blur-3"/>
      <feFlood flood-opacity="0.6"/>
      <feComposite operator="in" in2="blur-3"/>
      <feComposite in="SourceGraphic"/>
    </filter>
    <filter id="Path_1085" x="234" y="10.137" width="61.054" height="36.919" filterUnits="userSpaceOnUse">
      <feOffset input="SourceAlpha"/>
      <feGaussianBlur stdDeviation="3" result="blur-4"/>
      <feFlood flood-opacity="0.6"/>
      <feComposite operator="in" in2="blur-4"/>
      <feComposite in="SourceGraphic"/>
    </filter>
    <filter id="SO" x="275.442" y="1.137" width="53" height="54" filterUnits="userSpaceOnUse">
      <feOffset input="SourceAlpha"/>
      <feGaussianBlur stdDeviation="5" result="blur-5"/>
      <feFlood/>
      <feComposite operator="in" in2="blur-5"/>
      <feComposite in="SourceGraphic"/>
    </filter>
    <filter id="_2-2" x="305.602" y="16.278" width="24" height="31" filterUnits="userSpaceOnUse">
      <feOffset input="SourceAlpha"/>
      <feGaussianBlur stdDeviation="3" result="blur-6"/>
      <feFlood flood-opacity="0.6"/>
      <feComposite operator="in" in2="blur-6"/>
      <feComposite in="SourceGraphic"/>
    </filter>
    <filter id="PM" x="65.344" y="4.89" width="49" height="45" filterUnits="userSpaceOnUse">
      <feOffset input="SourceAlpha"/>
      <feGaussianBlur stdDeviation="3" result="blur-7"/>
      <feFlood flood-opacity="0.6"/>
      <feComposite operator="in" in2="blur-7"/>
      <feComposite in="SourceGraphic"/>
    </filter>
    <filter id="_2.5" x="99.699" y="15.89" width="32" height="31" filterUnits="userSpaceOnUse">
      <feOffset input="SourceAlpha"/>
      <feGaussianBlur stdDeviation="3" result="blur-8"/>
      <feFlood flood-opacity="0.6"/>
      <feComposite operator="in" in2="blur-8"/>
      <feComposite in="SourceGraphic"/>
    </filter>
    <filter id="Line_77" x="28.5" y="16.779" width="48.757" height="21" filterUnits="userSpaceOnUse">
      <feOffset input="SourceAlpha"/>
      <feGaussianBlur stdDeviation="3" result="blur-9"/>
      <feFlood flood-opacity="0.871"/>
      <feComposite operator="in" in2="blur-9"/>
      <feComposite in="SourceGraphic"/>
    </filter>
  </defs>
  <g id="Q3tag" transform="translate(-27 -96.68)">
    <rect id="BG" width="377" height="56.78" rx="5" transform="translate(27 96.68)" fill="#333"/>
    <g id="Group_967" data-name="Group 967" transform="translate(-94.041 -7)">
      <g transform="matrix(1, 0, 0, 1, 121.04, 103.68)" filter="url(#Path_1087)">
        <path id="Path_1087-2" data-name="Path 1087" d="M361.7,643.4h43.054v18.919H361.7V643.4Z" transform="translate(-220.7 -624.26)" fill="#8aa1ae" fill-rule="evenodd"/>
      </g>
      <g transform="matrix(1, 0, 0, 1, 121.04, 103.68)" filter="url(#NO)">
        <text id="NO-2" data-name="NO" transform="translate(189.09 35.14)" fill="#f2f2f2" font-size="23" font-family="Calibri"><tspan x="0" y="0">NO</tspan></text>
      </g>
      <g transform="matrix(1, 0, 0, 1, 121.04, 103.68)" filter="url(#_2)">
        <text id="_2-3" data-name="2" transform="translate(220.02 35.28)" fill="#f2f2f2" font-size="10" font-family="Calibri"><tspan x="0" y="0">2</tspan></text>
      </g>
    </g>
    <g id="Group_968" data-name="Group 968" transform="translate(-27.431 1)">
      <g transform="matrix(1, 0, 0, 1, 54.43, 95.68)" filter="url(#Path_1085)">
        <path id="Path_1085-2" data-name="Path 1085" d="M282.1,643.4h43.054v18.919H282.1V643.4Z" transform="translate(-39.1 -624.26)" fill="#8cd5d6" fill-rule="evenodd"/>
      </g>
      <g transform="matrix(1, 0, 0, 1, 54.43, 95.68)" filter="url(#SO)">
        <text id="SO-2" data-name="SO" transform="translate(290.44 35.14)" fill="#f2f2f2" font-size="20" font-family="Calibri"><tspan x="0" y="0">SO</tspan></text>
      </g>
      <g transform="matrix(1, 0, 0, 1, 54.43, 95.68)" filter="url(#_2-2)">
        <text id="_2-4" data-name="2" transform="translate(314.6 35.28)" fill="#f2f2f2" font-size="10" font-family="Calibri"><tspan x="0" y="0">2</tspan></text>
      </g>
    </g>
    <g id="Group_966" data-name="Group 966" transform="translate(-68.5 -4)">
      <g transform="matrix(1, 0, 0, 1, 95.5, 100.68)" filter="url(#PM)">
        <text id="PM-2" data-name="PM" transform="translate(74.34 34.89)" fill="#f2f2f2" font-size="22" font-family="Calibri"><tspan x="0" y="0">PM</tspan></text>
      </g>
      <g transform="matrix(1, 0, 0, 1, 95.5, 100.68)" filter="url(#_2.5)">
        <text id="_2.5-2" data-name="2.5" transform="translate(108.7 34.89)" fill="#f2f2f2" font-size="11" font-family="Calibri"><tspan x="0" y="0">2.5</tspan></text>
      </g>
      <g transform="matrix(1, 0, 0, 1, 95.5, 100.68)" filter="url(#Line_77)">
        <line id="Line_77-2" data-name="Line 77" x2="27.757" transform="translate(39 27.28)" fill="none" stroke="#ffcb47" stroke-linecap="round" stroke-miterlimit="10" stroke-width="3"/>
      </g>
    </g>
  </g>
</svg>
